<?xml version="1.0" encoding="UTF-8"?>
<!DOCTYPE svg PUBLIC "-//W3C//DTD SVG 1.1//EN" "http://www.w3.org/Graphics/SVG/1.1/DTD/svg11.dtd">
<!-- Creator: CorelDRAW X5 -->
<svg xmlns="http://www.w3.org/2000/svg" xml:space="preserve" width="5.50748in" height="3.74865in" style="shape-rendering:geometricPrecision; text-rendering:geometricPrecision; image-rendering:optimizeQuality; fill-rule:evenodd; clip-rule:evenodd"
viewBox="0 0 5.67198 3.86062"
 xmlns:xlink="http://www.w3.org/1999/xlink">
 <defs>
  <style type="text/css">
   <![CDATA[
    .str2 {stroke:#373435;stroke-width:0.00715232}
    .str0 {stroke:#727376;stroke-width:0.00715232}
    .str1 {stroke:#DEB09C;stroke-width:0.0286093}
    .fil5 {fill:none}
    .fil3 {fill:#606062}
    .fil1 {fill:#BDBFC1}
    .fil6 {fill:#2B3D55}
    .fil2 {fill:#F0BCA6}
    .fil29 {fill:#255F7D;fill-rule:nonzero}
    .fil32 {fill:#265E7B;fill-rule:nonzero}
    .fil30 {fill:#267188;fill-rule:nonzero}
    .fil37 {fill:#276585;fill-rule:nonzero}
    .fil38 {fill:#277993;fill-rule:nonzero}
    .fil9 {fill:#286E92;fill-rule:nonzero}
    .fil33 {fill:#286F87;fill-rule:nonzero}
    .fil10 {fill:#28829F;fill-rule:nonzero}
    .fil40 {fill:#295971;fill-rule:nonzero}
    .fil41 {fill:#29677C;fill-rule:nonzero}
    .fil44 {fill:#2E2F33;fill-rule:nonzero}
    .fil36 {fill:#2F3035;fill-rule:nonzero}
    .fil8 {fill:#2F3036;fill-rule:nonzero}
    .fil31 {fill:#303539;fill-rule:nonzero}
    .fil12 {fill:#3B363D;fill-rule:nonzero}
    .fil42 {fill:#3B373D;fill-rule:nonzero}
    .fil34 {fill:#3B4249;fill-rule:nonzero}
    .fil39 {fill:#3F464E;fill-rule:nonzero}
    .fil19 {fill:#413B44;fill-rule:nonzero}
    .fil17 {fill:#414A52;fill-rule:nonzero}
    .fil43 {fill:#433D47;fill-rule:nonzero}
    .fil13 {fill:#4A444E;fill-rule:nonzero}
    .fil20 {fill:#4B434F;fill-rule:nonzero}
    .fil24 {fill:#4D4D4E;fill-rule:nonzero}
    .fil28 {fill:#5D5E5E;fill-rule:nonzero}
    .fil18 {fill:#A73437;fill-rule:nonzero}
    .fil15 {fill:#A8AAAD;fill-rule:nonzero}
    .fil16 {fill:#CBCDCF;fill-rule:nonzero}
    .fil14 {fill:#D2D2D3;fill-rule:nonzero}
    .fil22 {fill:#D8D6B1;fill-rule:nonzero}
    .fil26 {fill:#E2E0C8;fill-rule:nonzero}
    .fil11 {fill:#E2E3E3;fill-rule:nonzero}
    .fil35 {fill:#EAEAEA;fill-rule:nonzero}
    .fil21 {fill:#EBE6C6;fill-rule:nonzero}
    .fil25 {fill:#F0EED7;fill-rule:nonzero}
    .fil23 {fill:#F79535;fill-rule:nonzero}
    .fil27 {fill:#F8B438;fill-rule:nonzero}
    .fil0 {fill:#BDBFC1;fill-rule:nonzero}
    .fil7 {fill:#373435;fill-opacity:0.501961}
    .fil4 {fill:#727376;fill-opacity:0.501961}
   ]]>
  </style>
     <clipPath id="id0">
      <path d="M3.298 0.667367l0 0.793859 0.684498 -0.418386 -0.203829 -0.597182 -0.480669 0.22171z"/>
     </clipPath>
 </defs>
 <g id="Layer_x0020_1">
  <metadata id="CorelCorpID_0Corel-Layer"/>
  <g id="_95947896">
   <g>
    <path id="_325756296" class="fil0 str0" d="M4.83427 0.447717c0.061634,0 0.117519,0.0234478 0.158036,0.0613502 0.0407001,0.0380727 0.0658792,0.0906934 0.0658792,0.148812 0,0.0581187 -0.0251791,0.110739 -0.0658792,0.148812 -0.0405176,0.0379024 -0.0964022,0.0613461 -0.158036,0.0613461 -0.061634,0 -0.117519,-0.0234437 -0.158036,-0.0613461 -0.0407001,-0.0380727 -0.0658792,-0.0906934 -0.0658792,-0.148812 0,-0.0581187 0.0251791,-0.110739 0.0658792,-0.148812 0.0405176,-0.0379024 0.0964022,-0.0613502 0.158036,-0.0613502zm0.143456 0.0769361c-0.0366374,-0.0342736 -0.0873564,-0.0554791 -0.143456,-0.0554791 -0.0560995,0 -0.106819,0.0212056 -0.143456,0.0554791 -0.0364509,0.0340992 -0.0590026,0.0812056 -0.0590026,0.133226 0,0.0520206 0.0225517,0.0991269 0.0590026,0.133226 0.0366374,0.0342736 0.0873564,0.0554751 0.143456,0.0554751 0.0560995,0 0.106819,-0.0212015 0.143456,-0.0554751 0.0364509,-0.0340992 0.0590026,-0.0812056 0.0590026,-0.133226 0,-0.0520206 -0.0225517,-0.0991269 -0.0590026,-0.133226z"/>
    <polygon id="_328129512" class="fil1 str0" points="5.18109,0.957251 5.36738,1.34018 5.35567,1.38608 5.29845,1.37356 5.28594,1.29668 5.2323,1.25019 5.22336,1.16437 5.1286,0.983784 "/>
    <path id="_329224704" class="fil2 str1" d="M3.93691 0.923939l0.331666 -0.142142 0.550696 -0.146614 0.185948 -0.046486c-0.0731734,-0.118865 -0.146095,-0.113869 -0.382625,-0.0429099 -0.0616908,0.0143695 -0.120685,0.0070915 -0.175224,-0.0357616 -0.0984904,-0.101199 -0.110111,-0.178917 -0.0321814,-0.232434 0.297624,-0.183134 0.403401,0.31752 0.611487,0.178796 -0.304334,-0.347378 -0.226004,-0.402642 -0.672277,-0.407658 -0.310935,-0.100457 -0.317548,0.026509 -0.414944,0.270499 -0.0271577,0.0680403 -0.08777,0.122112 -0.131933,0.210949l0.129386 0.393763z"/>
    <path id="_331830288" class="fil3" d="M4.91494 0.762971l0.196677 -0.0965523 0.182372 0.210981c0.0151034,0.0826774 -0.200196,0.153738 -0.271768,0.189524 -0.0213961,0.00316664 -0.0393986,-0.00197459 -0.0500662,-0.0250331l-0.0572145 -0.27892zm0.0375537 0.0250291l0.160919 -0.0750953 0.0393337 0.0482782 -0.177008 0.092972 -0.023245 -0.0661549z"/>
    <path id="_328499928" class="fil3 str2" d="M4.49299 0.78442c-0.054656,0.0497419 -0.0871902,0.113561 -0.0893999,0.196677l0.0143046 0.532815c0.0135099,0.0453507 0.0401365,0.0702703 0.0750953,0.0822476l0.293225 -0.00357616c0.0562819,-0.0283701 0.0855643,-0.0812907 0.0893999,-0.157343l0.00893634 -0.556056c0.0064306,-0.0305352 -0.0368198,-0.0815137 -0.0876078,-0.107281 -0.101316,0.00417219 -0.202637,0.00834437 -0.303953,0.0125166zm0.00893634 0.0554264c-0.043145,0.0345695 -0.0373105,0.069131 -0.00178808,0.103705l0.309768 -0.00134207c0.0303,-0.0297851 0.0288485,-0.063637 0.0031261,-0.100574l-0.311106 -0.00178808z"/>
    <path id="_329218848" class="fil4" d="M4.99845 0.885862l0.162298 -0.0826085c0.0148966,-0.00758616 0.0332883,-0.00160157 0.0408744,0.0132991l0.00381538 0.00749696c0.00758211,0.0148966 0.00159751,0.0332883 -0.0132991,0.0408744l-0.162298 0.0826085c-0.0149007,0.00758211 -0.0332923,0.00159751 -0.0408744,-0.0132991l-0.00381538 -0.00750101c-0.00758616,-0.0148966 -0.00160157,-0.0332883 0.0132991,-0.0408704z"/>
    <rect id="_329499824" class="fil5 str0" x="4.48888" y="1.0007" width="0.321838" height="0.472025" rx="0.0321854" ry="0.0321854"/>
    <line id="_329224608" class="fil5 str0" x1="4.48888" y1="1.14955" x2="4.81072" y2= "1.14955" />
    <line id="_329218704" class="fil5 str0" x1="4.48889" y1="1.31583" x2="4.81073" y2= "1.31583" />
    <polygon id="_329218464" class="fil6" points="3.298,0.667367 3.298,1.46123 3.9825,1.04284 3.77867,0.445658 "/>
    <g style="clip-path:url(#id0)">
     <g>
      <polygon id="_3266965921" class="fil7" points="3.09213,1.28726 3.91999,0.638527 4.22814,1.03176 3.40028,1.68049 "/>
     </g>
    </g>
    <polygon class="fil5" points="3.298,0.667367 3.298,1.46123 3.9825,1.04284 3.77867,0.445658 "/>
   </g>
   <g>
    <polygon id="_746987464" class="fil8" points="0.399058,3.3155 5.23714,3.30425 5.32767,3.18835 5.16948,2.76372 4.59762,2.55514 0.646896,2.55514 0.190441,2.95296 "/>
    <path id="_746987680" class="fil9" d="M5.5987 2.66749l-0.055844 -0.074779 -0.101698 -0.175487c0,0 -0.0528396,-0.0717867 -0.11865,-0.100704 0,0 -0.493571,-0.137597 -1.14866,-0.176489l-0.94025 -0.579305c0,0 -0.159545,-0.071803 -0.454687,-0.071803 0,0 -1.30825,-0.0114583 -2.02903,0.122202 -0.0191296,0.00353967 -0.036828,0.0124152 -0.0511123,0.0256535l-0.460473 0.426471c0,0 -0.133599,0.0648169 -0.156548,0.162529l-0.00996216 0.192448 -0.0518543 0.0408826 0 0.247282 0.0149615 0.0937181 -0.0348939 0.0299108 0.0199324 0.137593c0,0 0.0552115,0.215458 0.157217,0.301431l0.0338722 0.01589 0.144932 0.0305676 0.0431045 0c-0.00330856,-0.0249682 -0.00503987,-0.0504271 -0.00503987,-0.0762711 0,-0.318501 0.258205,-0.576763 0.576747,-0.576763 0.318566,0 0.576735,0.258262 0.576735,0.576763 0,0.025844 -0.00174753,0.0513029 -0.00503987,0.0762711l2.54993 0c-0.00331261,-0.0249682 -0.00503176,-0.0504271 -0.00503176,-0.0762711 0,-0.318501 0.258209,-0.576763 0.576727,-0.576763 0.318574,0 0.576735,0.258262 0.576735,0.576763 0,0.02198 -0.00127315,0.0436681 -0.00368158,0.0650156l0.241918 -0.044483 0.131146 -0.322207c0.0139559,-0.0343546 0.0206744,-0.0712556 0.0193283,-0.108302 -0.00180835,-0.0498635 -0.00859576,-0.119035 -0.0308312,-0.161762z"/>
    <path id="_746987872" class="fil10" d="M5.43366 2.40772c-0.0167942,-0.0204757 -0.0600649,-0.0687498 -0.111153,-0.0911961 0,0 -0.493571,-0.137597 -1.14866,-0.176489l-0.94025 -0.579305c0,0 -0.159545,-0.071803 -0.454687,-0.071803 0,0 -1.30825,-0.0114583 -2.02903,0.122202 -0.0191296,0.00353967 -0.036828,0.0124152 -0.0511123,0.0256535l-0.460473 0.426471c0,0 -0.133599,0.0648169 -0.156548,0.162529l-8.51467e-005 0.00203541 0.451444 0 4.18541 0.111566 0.715139 0.0683363z"/>
    <path id="_746987968" class="fil11" d="M2.86451 3.86062c-1.55055,0 -2.80748,-0.049827 -2.80748,-0.111307 0,-0.0614637 1.25693,-0.111311 2.80748,-0.111311 1.55053,0 2.80748,0.0498473 2.80748,0.111311 0,0.0614799 -1.25695,0.111307 -2.80748,0.111307z"/>
    <path id="_746987344" class="fil12" d="M5.17738 3.23923c0,0.283494 -0.229766,0.513284 -0.513296,0.513284 -0.283486,0 -0.513288,-0.229791 -0.513288,-0.513284 0,-0.283461 0.229803,-0.513325 0.513288,-0.513325 0.28353,0 0.513296,0.229864 0.513296,0.513325z"/>
    <path id="_746987656" class="fil13" d="M5.00031 3.57545c-0.0436802,0.043664 -0.0945168,0.077966 -0.151143,0.101904 -0.0586012,0.0247858 -0.12088,0.0373551 -0.185089,0.0373551 -0.0642087,0 -0.126471,-0.0125693 -0.185072,-0.0373551 -0.0565982,-0.0239384 -0.107475,-0.0582403 -0.151152,-0.101904 -0.0436762,-0.0436802 -0.077966,-0.0945371 -0.101908,-0.151152 -0.0247898,-0.0586012 -0.0373469,-0.120872 -0.0373469,-0.185072 0,-0.0642209 0.0125571,-0.126483 0.0373469,-0.185064 0.0239424,-0.0566144 0.0582322,-0.107483 0.101908,-0.151168 0.0436762,-0.0436762 0.0945533,-0.0779741 0.151152,-0.101925 0.0586012,-0.0247858 0.120864,-0.0373551 0.185072,-0.0373551 0.0642087,0 0.126487,0.0125693 0.185089,0.0373551 0.0566266,0.0239505 0.107463,0.0582484 0.151143,0.101925 0.0436762,0.0436843 0.0779741,0.0945412 0.101916,0.151152 0.0247736,0.0585971 0.0373267,0.12086 0.0373267,0.18508 0,0.0642087 -0.012553,0.126479 -0.0373267,0.185072 -0.0239424,0.0566144 -0.0582403,0.107471 -0.101916,0.151152zm-0.336232 -0.849549c-0.283486,0 -0.513288,0.229864 -0.513288,0.513325 0,0.283494 0.229803,0.513284 0.513288,0.513284 0.28353,0 0.513296,-0.229791 0.513296,-0.513284 0,-0.283461 -0.229766,-0.513325 -0.513296,-0.513325z"/>
    <path id="_746987320" class="fil13" d="M5.01276 3.23922c0,0.0470942 -0.00922017,0.0927531 -0.0273848,0.13572 -0.0175645,0.041507 -0.0427071,0.0788093 -0.0747425,0.110845 -0.0320273,0.0320233 -0.0693175,0.057178 -0.110829,0.0747425 -0.0429666,0.0181565 -0.0886255,0.0273767 -0.135724,0.0273767 -0.047082,0 -0.092745,-0.00922017 -0.135699,-0.0273767 -0.0415272,-0.0175645 -0.0788215,-0.0427193 -0.110853,-0.0747425 -0.0320273,-0.0320354 -0.0571861,-0.0693378 -0.0747466,-0.110845 -0.0181727,-0.0429666 -0.0273807,-0.0886174 -0.0273807,-0.13572 0,-0.0470902 0.009208,-0.0927409 0.0273807,-0.135703 0.0175605,-0.041511 0.0427193,-0.0788053 0.0747466,-0.110845 0.0320314,-0.0320354 0.0693256,-0.0571902 0.110853,-0.0747547 0.0429545,-0.0181727 0.0886174,-0.0273848 0.135699,-0.0273848 0.0470983,0 0.0927571,0.00921206 0.135724,0.0273848 0.041511,0.0175645 0.0788012,0.0427193 0.110829,0.0747547 0.0320354,0.0320233 0.057178,0.0693256 0.0747425,0.110845 0.0181646,0.0429626 0.0273848,0.0886133 0.0273848,0.135703zm-0.34868 -0.400473c-0.22083,0 -0.400461,0.179655 -0.400461,0.400473 0,0.220814 0.179631,0.400469 0.400461,0.400469 0.220793,0 0.400473,-0.179655 0.400473,-0.400469 0,-0.220818 -0.17968,-0.400473 -0.400473,-0.400473z"/>
    <path id="_746970496" class="fil14" d="M5.01262 3.23919c-0.000482498,0.192484 -0.156917,0.348538 -0.349409,0.348538 -0.192496,0 -0.348153,-0.156054 -0.347658,-0.348538 0.000470334,-0.1925 0.156909,-0.348538 0.349389,-0.348538 0.19248,0 0.348161,0.156037 0.347678,0.348538z"/>
    <path id="_746972680" class="fil12" d="M4.9503 3.23919c-0.000393296,0.158069 -0.128851,0.286218 -0.286916,0.286218 -0.158081,0 -0.285902,-0.12815 -0.285517,-0.286218 0.000397351,-0.158077 0.128851,-0.286218 0.28692,-0.286218 0.158085,0 0.285902,0.128142 0.285513,0.286218z"/>
    <path id="_746970712" class="fil15" d="M4.95023 3.26922l0.000141911 -0.0601014 -0.102427 0c-0.0019827,-0.0123868 -0.00517773,-0.0243722 -0.00949182,-0.0358184l0.0888201 -0.0512015 -0.029927 -0.0520611 -0.0888363 0.0512177c-0.00783349,-0.00957292 -0.0165914,-0.0183552 -0.0261441,-0.0262049l0.0514286 -0.0887107 -0.0519638 -0.0300406 -0.0514367 0.0886742c-0.0114299,-0.00433437 -0.0233951,-0.00756589 -0.0358021,-0.00957697l0.000263549 -0.102435 -0.0601095 0 -0.00025544 0.102435c-0.0124071,0.00201108 -0.0243965,0.0052426 -0.0358549,0.00957697l-0.0509866 -0.0886742 -0.0521138 0.0300406 0.0509704 0.0887107c-0.00956886,0.00784971 -0.0183836,0.016632 -0.0262657,0.0262049l-0.0885728 -0.0512177 -0.0301825 0.0520611 0.0885606 0.0512015c-0.00434248,0.0114461 -0.00762671,0.0234315 -0.00966212,0.0358184l-0.102427 0 -0.00015813 0.0601014 0.102435 0c0.00197459,0.012403 0.00516151,0.0243803 0.00949182,0.0358386l-0.0888201 0.0512096 0.0299189 0.052057 0.0888363 -0.0512177c0.00781322,0.00957697 0.0165833,0.0183592 0.0261441,0.026213l-0.0514367 0.0887066 0.05198 0.0300406 0.0514205 -0.0886863c0.0114299,0.00433842 0.0233951,0.00757805 0.0358103,0.00958914l-0.000263549 0.102435 0.0601095 0 0.000243276 -0.102435c0.0124071,-0.00201108 0.0244006,-0.00525071 0.0358751,-0.00958914l0.0509704 0.0886863 0.0521381 -0.0300406 -0.051015 -0.0887066c0.00961346,-0.00785377 0.0183998,-0.016636 0.026286,-0.026213l0.088589 0.0512177 0.0301744 -0.052057 -0.0885566 -0.0512096c0.00435464,-0.0114583 0.00763076,-0.0234356 0.00966617,-0.0358386l0.102435 0z"/>
    <path id="_746980984" class="fil12" d="M4.7516 3.23919c-0.000121638,0.0483187 -0.0394026,0.0874983 -0.0877213,0.0874983 -0.0483349,0 -0.0874051,-0.0391796 -0.0872915,-0.0874983 9.73105e-005,-0.0483268 0.0393945,-0.0875105 0.087697,-0.0875105 0.0483552,0 0.0874213,0.0391837 0.0873159,0.0875105z"/>
    <path id="_746983120" class="fil14" d="M4.66408 3.11536c-0.0682836,0 -0.123864,0.0555562 -0.123864,0.123856 0,0.0682876 0.0555805,0.123852 0.123864,0.123852 0.0683079,0 0.123864,-0.0555643 0.123864,-0.123852 0,-0.0682998 -0.0555562,-0.123856 -0.123864,-0.123856zm0 0.26269c-0.0765468,0 -0.138834,-0.0622868 -0.138834,-0.138834 0,-0.0765631 0.0622868,-0.138842 0.138834,-0.138842 0.076555,0 0.138834,0.0622787 0.138834,0.138842 0,0.0765468 -0.0622787,0.138834 -0.138834,0.138834z"/>
    <path id="_746985568" class="fil16" d="M4.71492 3.23919c-8.92013e-005,0.0280579 -0.0229085,0.0508204 -0.0509745,0.0508204 -0.028066,0 -0.0507596,-0.0227625 -0.0506785,-0.0508204 4.46006e-005,-0.028066 0.0228598,-0.0508326 0.0509339,-0.0508326 0.0280822,0 0.0507677,0.0227666 0.050719,0.0508326z"/>
    <path id="_746985952" class="fil14" d="M4.8226 3.23922c0,0.0213961 -0.0041884,0.0421598 -0.0124638,0.0616948 -0.00798351,0.0188661 -0.0194053,0.0358184 -0.0339492,0.0503825 -0.0145763,0.0145641 -0.0315286,0.0259941 -0.0504109,0.0339816 -0.0195189,0.00826328 -0.0402906,0.0124517 -0.0616908,0.0124517 -0.0213961,0 -0.0421476,-0.0041884 -0.0616827,-0.0124517 -0.0188742,-0.00798757 -0.0358427,-0.0194175 -0.0503906,-0.0339816 -0.0145641,-0.0145641 -0.0260143,-0.0315164 -0.0339695,-0.0503825 -0.0082795,-0.0195351 -0.0124801,-0.0402825 -0.0124801,-0.0616948 0,-0.0214083 0.00420057,-0.0421638 0.0124801,-0.0616908 0.00795513,-0.0188823 0.0194053,-0.0358184 0.0339695,-0.0503906 0.0145479,-0.0145641 0.0315164,-0.0260022 0.0503906,-0.0339816 0.0195351,-0.00827139 0.0402865,-0.0124476 0.0616827,-0.0124476 0.0214002,0 0.0421719,0.00417624 0.0616908,0.0124476 0.0188823,0.00797946 0.0358346,0.0194175 0.0504109,0.0339816 0.0145439,0.0145722 0.0259657,0.0315083 0.0339532,0.0503906 0.00827139,0.019527 0.0124598,0.0402825 0.0124598,0.0616908zm-0.158515 -0.182048c-0.10038,0 -0.182035,0.0816597 -0.182035,0.182048 0,0.100392 0.0816556,0.182039 0.182035,0.182039 0.10038,0 0.182044,-0.0816475 0.182044,-0.182039 0,-0.100388 -0.0816638,-0.182048 -0.182044,-0.182048z"/>
    <path id="_746985976" class="fil14" d="M4.94606 3.23922c0,0.0380889 -0.00745236,0.0750101 -0.02213,0.10975 -0.0142154,0.0335802 -0.0345452,0.0637384 -0.060446,0.0896432 -0.0259049,0.025917 -0.0560711,0.0462387 -0.089631,0.060446 -0.0347601,0.0146939 -0.0716854,0.0221381 -0.109766,0.0221381 -0.0380768,0 -0.0750101,-0.00744425 -0.10975,-0.0221381 -0.0335681,-0.0142073 -0.0637262,-0.034529 -0.0896432,-0.060446 -0.0258967,-0.0259049 -0.0462387,-0.056063 -0.0604501,-0.0896432 -0.0146817,-0.0347398 -0.0221341,-0.071661 -0.0221341,-0.10975 0,-0.0380727 0.00745236,-0.0750061 0.0221341,-0.109746 0.0142114,-0.0335721 0.0345533,-0.0637343 0.0604501,-0.0896432 0.025917,-0.0259049 0.0560752,-0.0462468 0.0896432,-0.0604541 0.0347398,-0.0146939 0.0716732,-0.0221381 0.10975,-0.0221381 0.0380808,0 0.0750061,0.00744425 0.109766,0.0221381 0.0335599,0.0141952 0.0637262,0.0345371 0.089631,0.060446 0.0259008,0.025917 0.0462306,0.0560792 0.060446,0.0896513 0.0146777,0.0347398 0.02213,0.0716732 0.02213,0.109746zm-0.281973 -0.323878c-0.178577,0 -0.323861,0.145297 -0.323861,0.323878 0,0.178585 0.145285,0.323865 0.323861,0.323865 0.178585,0 0.323857,-0.14528 0.323857,-0.323865 0,-0.178581 -0.145272,-0.323878 -0.323857,-0.323878z"/>
    <path id="_746971816" class="fil12" d="M1.48405 3.23923c0,0.283494 -0.229754,0.513284 -0.513284,0.513284 -0.283494,0 -0.513296,-0.229791 -0.513296,-0.513284 0,-0.283461 0.229803,-0.513325 0.513296,-0.513325 0.28353,0 0.513284,0.229864 0.513284,0.513325z"/>
    <path id="_328130472" class="fil13" d="M1.30699 3.57545c-0.0436843,0.043664 -0.0945209,0.077966 -0.151147,0.101904 -0.0586012,0.0247858 -0.12088,0.0373551 -0.18508,0.0373551 -0.0642087,0 -0.126487,-0.0125693 -0.185072,-0.0373551 -0.0566266,-0.0239384 -0.107483,-0.0582403 -0.151152,-0.101904 -0.0436762,-0.0436802 -0.0779822,-0.0945371 -0.101933,-0.151152 -0.0247736,-0.0586012 -0.0373307,-0.120872 -0.0373307,-0.185072 0,-0.0642209 0.0125571,-0.126483 0.0373307,-0.185064 0.0239505,-0.0566144 0.0582565,-0.107483 0.101933,-0.151168 0.0436681,-0.0436762 0.094525,-0.0779741 0.151152,-0.101925 0.058585,-0.0247858 0.120864,-0.0373551 0.185072,-0.0373551 0.0642006,0 0.126479,0.0125693 0.18508,0.0373551 0.0566104,0.0239505 0.107463,0.0582484 0.151123,0.101925 0.0437046,0.0436843 0.0779862,0.0945412 0.101937,0.151152 0.0247736,0.0585971 0.0373429,0.12086 0.0373429,0.18508 0,0.0642087 -0.0125693,0.126479 -0.0373429,0.185072 -0.0239505,0.0566144 -0.0582322,0.107471 -0.101912,0.151152zm-0.336228 -0.849549c-0.283494,0 -0.513296,0.229864 -0.513296,0.513325 0,0.283494 0.229803,0.513284 0.513296,0.513284 0.28353,0 0.513284,-0.229791 0.513284,-0.513284 0,-0.283461 -0.229754,-0.513325 -0.513284,-0.513325z"/>
    <path id="_746987536" class="fil13" d="M1.31944 3.23922c0,0.0470942 -0.00922828,0.0927531 -0.0273929,0.13572 -0.0175402,0.041507 -0.0426909,0.0788093 -0.074702,0.110845 -0.0320516,0.0320233 -0.0693459,0.057178 -0.110861,0.0747425 -0.0429666,0.0181565 -0.0886417,0.0273767 -0.135716,0.0273767 -0.0471023,0 -0.092745,-0.00922017 -0.135728,-0.0273767 -0.041507,-0.0175645 -0.0788012,-0.0427193 -0.110824,-0.0747425 -0.0320273,-0.0320354 -0.0571861,-0.0693378 -0.0747466,-0.110845 -0.0181646,-0.0429666 -0.0273807,-0.0886174 -0.0273807,-0.13572 0,-0.0470902 0.00921611,-0.0927409 0.0273807,-0.135703 0.0175605,-0.041511 0.0427193,-0.0788053 0.0747466,-0.110845 0.0320354,-0.0320354 0.0693297,-0.0571902 0.110824,-0.0747547 0.0429828,-0.0181727 0.0886255,-0.0273848 0.135728,-0.0273848 0.0470739,0 0.092749,0.00921206 0.135716,0.0273848 0.0414989,0.0175645 0.0788093,0.0427193 0.110861,0.0747547 0.0320111,0.0320233 0.0571456,0.0693256 0.074702,0.110845 0.0181646,0.0429626 0.0273929,0.0886133 0.0273929,0.135703zm-0.348672 -0.400473c-0.22083,0 -0.400469,0.179655 -0.400469,0.400473 0,0.220814 0.179639,0.400469 0.400469,0.400469 0.220801,0 0.400457,-0.179655 0.400457,-0.400469 0,-0.220818 -0.179655,-0.400473 -0.400457,-0.400473z"/>
    <path id="_746987416" class="fil14" d="M1.31929 3.23919c-0.000482498,0.192484 -0.156909,0.348538 -0.349389,0.348538 -0.192504,0 -0.348173,-0.156054 -0.347682,-0.348538 0.000474389,-0.1925 0.156909,-0.348538 0.349401,-0.348538 0.1925,0 0.348136,0.156037 0.34767,0.348538z"/>
    <path id="_746987848" class="fil12" d="M1.25698 3.23919c-0.000401406,0.158069 -0.128859,0.286218 -0.286916,0.286218 -0.158105,0 -0.28591,-0.12815 -0.285525,-0.286218 0.000393296,-0.158077 0.128859,-0.286218 0.286916,-0.286218 0.158097,0 0.285902,0.128142 0.285525,0.286218z"/>
    <path id="_329218104" class="fil15" d="M1.25689 3.26922l0.00015813 -0.0601014 -0.102435 0c-0.00198676,-0.0123868 -0.005198,-0.0243722 -0.00949182,-0.0358184l0.088812 -0.0512015 -0.0299108 -0.0520611 -0.0888363 0.0512177c-0.00783349,-0.00957292 -0.0165914,-0.0183552 -0.0261522,-0.0262049l0.0514286 -0.0887107 -0.0519638 -0.0300406 -0.0514286 0.0886742c-0.0114502,-0.00433437 -0.0234234,-0.00756589 -0.0358021,-0.00957697l0.00025544 -0.102435 -0.0601014 0 -0.000263549 0.102435c-0.0124071,0.00201108 -0.0244006,0.0052426 -0.0358549,0.00957697l-0.0509988 -0.0886742 -0.0521057 0.0300406 0.0509907 0.0887107c-0.00960535,0.00784971 -0.0183998,0.016632 -0.0262738,0.0262049l-0.0885809 -0.0512177 -0.0301744 0.0520611 0.0885444 0.0512015c-0.00437086,0.0114461 -0.00763076,0.0234315 -0.00968239,0.0358184l-0.102411 0 -0.00015002 0.0601014 0.102427 0c0.00198676,0.012403 0.00517367,0.0243803 0.00948372,0.0358386l-0.088812 0.0512096 0.029923 0.052057 0.0888526 -0.0512177c0.00782944,0.00957697 0.0165833,0.0183592 0.026136,0.026213l-0.0514286 0.0887066 0.0519719 0.0300406 0.0514164 -0.0886863c0.0114502,0.00433842 0.0234275,0.00757805 0.0358224,0.00958914l-0.000263549 0.102435 0.0600933 0 0.000271658 -0.102435c0.0123949,-0.00201108 0.0243884,-0.00525071 0.0358427,-0.00958914l0.0509907 0.0886863 0.05213 -0.0300406 -0.051015 -0.0887066c0.00961346,-0.00785377 0.0184079,-0.016636 0.0262819,-0.026213l0.0886012 0.0512177 0.0301662 -0.052057 -0.0885647 -0.0512096c0.00437897,-0.0114583 0.00763887,-0.0234356 0.00966617,-0.0358386l0.102435 0z"/>
    <path id="_746987272" class="fil12" d="M1.05825 3.23919c-9.73105e-005,0.0483187 -0.0393742,0.0874983 -0.0877011,0.0874983 -0.0483471,0 -0.0874132,-0.0391796 -0.0872834,-0.0874983 0.000121638,-0.0483268 0.0393824,-0.0875105 0.0876929,-0.0875105 0.0483552,0 0.0874253,0.0391837 0.0872915,0.0875105z"/>
    <path id="_746987632" class="fil14" d="M0.970765 3.11536c-0.0683119,0 -0.123848,0.0555562 -0.123848,0.123856 0,0.0682876 0.0555359,0.123852 0.123848,0.123852 0.0682836,0 0.12384,-0.0555643 0.12384,-0.123852 0,-0.0682998 -0.0555562,-0.123856 -0.12384,-0.123856zm0 0.26269c-0.0765468,0 -0.138834,-0.0622868 -0.138834,-0.138834 0,-0.0765631 0.0622868,-0.138842 0.138834,-0.138842 0.0765428,0 0.138826,0.0622787 0.138826,0.138842 0,0.0765468 -0.0622828,0.138834 -0.138826,0.138834z"/>
    <path id="_331830600" class="fil16" d="M1.02157 3.23919c-5.27098e-005,0.0280579 -0.0228517,0.0508204 -0.050938,0.0508204 -0.028066,0 -0.0507596,-0.0227625 -0.0506988,-0.0508204 6.89282e-005,-0.028066 0.022872,-0.0508326 0.050938,-0.0508326 0.0280822,0 0.0507758,0.0227666 0.0506988,0.0508326z"/>
    <path id="_315248960" class="fil14" d="M1.12926 3.23922c0,0.0213961 -0.00420057,0.0421598 -0.0124517,0.0616948 -0.00795919,0.0188661 -0.0194094,0.0358184 -0.0339654,0.0503825 -0.0145763,0.0145641 -0.0315164,0.0259941 -0.0503906,0.0339816 -0.0195189,0.00826328 -0.0402784,0.0124517 -0.0616827,0.0124517 -0.0214124,0 -0.0421679,-0.0041884 -0.0616989,-0.0124517 -0.0188782,-0.00798757 -0.0358103,-0.0194175 -0.0503784,-0.0339816 -0.0145601,-0.0145641 -0.0260184,-0.0315164 -0.0339897,-0.0503825 -0.00826328,-0.0195351 -0.0124395,-0.0402825 -0.0124395,-0.0616948 0,-0.0214083 0.00417624,-0.0421638 0.0124395,-0.0616908 0.00797135,-0.0188823 0.0194297,-0.0358184 0.0339897,-0.0503906 0.0145682,-0.0145641 0.0315002,-0.0260022 0.0503784,-0.0339816 0.019531,-0.00827139 0.0402865,-0.0124476 0.0616989,-0.0124476 0.0214042,0 0.0421638,0.00417624 0.0616827,0.0124476 0.0188742,0.00797946 0.0358143,0.0194175 0.0503906,0.0339816 0.014556,0.0145722 0.0260062,0.0315083 0.0339654,0.0503906 0.00825112,0.019527 0.0124517,0.0402825 0.0124517,0.0616908zm-0.15849 -0.182048c-0.100372,0 -0.182056,0.0816597 -0.182056,0.182048 0,0.100392 0.081684,0.182039 0.182056,0.182039 0.10038,0 0.182031,-0.0816475 0.182031,-0.182039 0,-0.100388 -0.0816516,-0.182048 -0.182031,-0.182048z"/>
    <path id="_746990416" class="fil14" d="M1.25275 3.23922c0,0.0380889 -0.00747263,0.0750101 -0.0221584,0.10975 -0.0142154,0.0335802 -0.034529,0.0637384 -0.0604379,0.0896432 -0.0258967,0.025917 -0.0560549,0.0462387 -0.0896351,0.060446 -0.0347479,0.0146939 -0.071661,0.0221381 -0.109754,0.0221381 -0.0380768,0 -0.0750101,-0.00744425 -0.109758,-0.0221381 -0.0335802,-0.0142073 -0.0637343,-0.034529 -0.0896351,-0.060446 -0.025913,-0.0259049 -0.0462387,-0.056063 -0.060442,-0.0896432 -0.0146979,-0.0347398 -0.0221503,-0.071661 -0.0221503,-0.10975 0,-0.0380727 0.00745236,-0.0750061 0.0221503,-0.109746 0.0142033,-0.0335721 0.034529,-0.0637343 0.060442,-0.0896432 0.0259089,-0.0259049 0.056063,-0.0462468 0.0896554,-0.0604541 0.0347277,-0.0146939 0.071661,-0.0221381 0.109738,-0.0221381 0.0380727,0 0.0750061,0.00744425 0.109754,0.0221381 0.0335721,0.0141952 0.0637221,0.0345371 0.0896351,0.060446 0.0259089,0.025917 0.0462225,0.0560792 0.0604379,0.0896513 0.0146858,0.0347398 0.0221584,0.0716732 0.0221584,0.109746zm-0.281985 -0.323878c-0.178585,0 -0.323869,0.145297 -0.323869,0.323878 0,0.178585 0.145285,0.323865 0.323869,0.323865 0.178565,0 0.323853,-0.14528 0.323853,-0.323865 0,-0.178581 -0.145289,-0.323878 -0.323853,-0.323878z"/>
    <path id="_746986768" class="fil10" d="M4.66408 2.572c0.351031,0 0.63847,0.271808 0.663592,0.616352 0.00117989,-0.0161981 0.0018043,-0.0325585 0.0018043,-0.0490647 0,-0.367456 -0.297859,-0.665433 -0.665397,-0.665433 -0.367485,0 -0.665389,0.297977 -0.665389,0.665433 0,0.0165063 0.000624409,0.0328666 0.00179213,0.0490647 0.0251345,-0.344544 0.312606,-0.616352 0.663597,-0.616352z"/>
    <path id="_330009264" class="fil10" d="M0.970765 2.572c0.351015,0 0.638474,0.271808 0.663592,0.616352 0.00117178,-0.0161981 0.00178403,-0.0325585 0.00178403,-0.0490647 0,-0.367456 -0.297839,-0.665433 -0.665377,-0.665433 -0.367493,0 -0.665405,0.297977 -0.665405,0.665433 0,0.0165063 0.000632518,0.0328666 0.00180024,0.0490647 0.0251264,-0.344544 0.31263,-0.616352 0.663605,-0.616352z"/>
    <path id="_327406344" class="fil17" d="M1.54086 3.15168c0.00437086,0.0285403 0.00663738,0.0577821 0.00663738,0.0875551 0,0.025844 -0.00174753,0.0513029 -0.00503987,0.0762711l2.54993 0c-0.00331261,-0.0249682 -0.00503176,-0.0504271 -0.00503176,-0.0762711 0,-0.0297729 0.00225436,-0.0590147 0.00661711,-0.0875551l-2.55311 0z"/>
    <path id="_745897960" class="fil17" d="M0.0905555 3.15168c0.0233869,0.0450101 0.0523368,0.0884917 0.0865941,0.117369l0.0338722 0.01589 0.144932 0.0305676 0.0431045 0c-0.00330856,-0.0249682 -0.00503987,-0.0504271 -0.00503987,-0.0762711 0,-0.0297729 0.00227463,-0.0590147 0.00662117,-0.0875551l-0.310084 0z"/>
    <path id="_745897768" class="fil17" d="M5.2342 3.15168c0.00434653,0.0285403 0.00661306,0.0577821 0.00661306,0.0875551 0,0.02198 -0.00127315,0.0436681 -0.00368158,0.0650156l0.241918 -0.044483 0.0439843 -0.108088 -0.288834 0z"/>
    <path id="_745897720" class="fil17" d="M2.77891 1.48892c0,0 -1.30591,-0.0114421 -2.02709,0.121833 -0.0204068,0.00377484 -0.0392972,0.0132302 -0.0545668,0.0272956l-0.383934 0.353797 3.86053 0.148184 -0.94025 -0.579305c0,0 -0.159545,-0.071803 -0.454687,-0.071803z"/>
    <path id="_745897792" class="fil18" d="M0.0816638 2.22781l-0.00987701 0.190412 -0.0116854 0.009208c0.0949264,-0.001188 0.20822,-0.00729423 0.20822,-0.00729423 0.15654,-0.0124841 0.256454,-0.154866 0.256454,-0.154866 0.0199811,-0.0216394 0.00833221,-0.0374605 0.00833221,-0.0374605l-0.451444 0z"/>
    <path id="_745897912" class="fil17" d="M4.51305 2.34166l-0.673871 -0.0382349c-0.0134005,-0.000754156 -0.0194905,0.0164009 -0.00869307,0.0243641 0.0482863,0.0355386 0.090223,0.0476335 0.090223,0.0476335l0.388885 0.0263387c0.0897851,0.00415191 0.165513,-0.0220165 0.207077,-0.0405582 0.00981214,-0.00436275 0.00709961,-0.018939 -0.00362076,-0.0195432z"/>
    <path id="_745898416" class="fil19" d="M2.25496 1.98491l-0.0836221 -0.393349c0,0 0.670039,-0.00928909 0.882695,0 0,0 0.306654,0.0929193 0.817688,0.473882l-1.61676 -0.0805325z"/>
    <path id="_745898464" class="fil20" d="M3.32355 2.02391l-0.504417 -0.0251264 0.184034 -0.394683c0.0183309,0.000466279 0.0344844,0.000993378 0.0484079,0.0015894 0.0118435,0.00380322 0.0872307,0.029035 0.214322,0.093191 0.0457238,0.0230707 0.101698,0.0530342 0.166786,0.0909853l-0.109134 0.234044z"/>
    <path id="_745898848" class="fil20" d="M2.25052 1.89572l-0.0575835 -0.270876 0.00906609 -0.0194459c0.0366374,-0.00045817 0.103469,-0.00124882 0.184821,-0.00197865l-0.136304 0.2923z"/>
    <polygon id="_745898392" class="fil20" points="3.57337,2.03635 3.57211,2.03629 3.57317,2.03401 "/>
    <path id="_745898656" class="fil20" d="M2.52393 1.98408l-0.115974 -0.00577375 0.175459 -0.376267c0.0394716,-0.000194621 0.079454,-0.000324368 0.118836,-0.00036086l-0.178321 0.382402z"/>
    <path id="_745898488" class="fil20" d="M2.64143 1.98993l-0.074702 -0.00371807 0.179315 -0.384555c0.0268699,1.62184e-005 0.0523206,8.10921e-005 0.0763522,0.000182457l-0.180965 0.38809z"/>
    <path id="_745898920" class="fil19" d="M2.10319 1.59467l0.0309731 0.38923 -1.46914 -0.0382146 0.289077 -0.268423c0,0 0.747515,-0.0761941 1.14909,-0.0825923z"/>
    <path id="_745899088" class="fil20" d="M1.87845 1.97724l-0.509943 -0.0132626 0 0 0.509943 0.0132626zm0.00655224 -0.0140533l-0.509947 -0.0132586 0.14391 -0.308612c0.181841,-0.014106 0.376158,-0.0268293 0.530687,-0.0312245l-0.164649 0.353095z"/>
    <path id="_745899472" class="fil20" d="M0.759241 1.94813l-0.0940749 -0.00244087 0 0 0.0940749 0.00244087 0 0zm0.00654818 -0.0140451l-0.0655427 -0.00170699 0.117008 -0.108639 -0.0514651 0.110346z"/>
    <path id="_745899616" class="fil20" d="M1.07008 1.95622l-0.117235 -0.00304501 0 0 0.117235 0.00304501 0 0zm0.00654818 -0.0140451l-0.117235 -0.00304906 0.121188 -0.25988c0.0355872,-0.00336937 0.0774632,-0.00725774 0.123994,-0.0114543l-0.127947 0.274383z"/>
    <path id="_745899160" class="fil20" d="M1.18886 1.95931l-0.0755251 -0.00196648 0 0 0.0755251 0.00196648 0 0zm0.00656035 -0.0140492l-0.0755291 -0.00196648 0.130372 -0.279585c0.0255399,-0.00225841 0.0521908,-0.0045817 0.0796811,-0.00693743l-0.134524 0.288489z"/>
    <path id="_745898824" class="fil8" d="M2.25496 1.98491l-0.0836221 -0.393349c0,0 0.297807,-0.00412759 0.559345,-0.00412759 0.130773,0 0.25246,0.00102987 0.323351,0.00412759 0,0 0.306654,0.0929193 0.817688,0.473882l-1.61676 -0.0805325zm1.62751 0.0661508c-0.265013,-0.197573 -0.474275,-0.316478 -0.603142,-0.381445 -0.140318,-0.0707407 -0.216881,-0.0942695 -0.220051,-0.0952345l-0.00218949 -0.000652791 -0.0022503 -0.000101365c-0.062972,-0.00274902 -0.172017,-0.0041438 -0.324125,-0.0041438l0 0.0179497 0 -0.0179497c-0.258712,0 -0.556644,0.00409109 -0.559632,0.00413569l-0.0218421 0.000295986 0.00454115 0.0213799 0.0836302 0.393353 0.0028666 0.0135018 0.0137938 0.000697392 1.61677 0.0805204 0.0589174 0.00293148 -0.0472848 -0.0352386z"/>
    <path id="_745898968" class="fil8" d="M0.665024 1.94568l0.289077 -0.268423c0,0 0.747515,-0.0761941 1.14909,-0.0825923l0.0309731 0.38923 -1.46914 -0.0382146zm1.45607 -0.352438l-0.00135424 -0.0167861 -0.0168307 0.000263549c-0.397736,0.00633734 -1.14315,0.0819192 -1.15062,0.0826815l-0.00598054 0.000612245 -0.00441546 0.00408298 -0.289069 0.268439 -0.0322625 0.0299554 0.0439924 0.00113934 1.46914 0.0381984 0.0199284 0.000518989 -0.00157319 -0.0198838 -0.0309528 -0.389222z"/>
    <path id="_745898368" class="fil17" d="M1.03726 1.56824c0,0 -0.229653,-0.0246682 -0.477056,0.0264279l-0.0179984 0.0263265c0,0 0.0391918,0.0168225 0.225266,0.12729l0.269789 -0.180045z"/>
    <path id="_745899520" class="fil21" d="M5.54285 2.59271l-0.101698 -0.175487c0,0 -0.00265982,-0.0036086 -0.00749696,-0.00950804l-0.715139 -0.0683363c0,0 0.0348534,0.0492513 0.134548,0.0985106l0.160976 0.0360373c0,0 0.0780835,0.0288201 0.109308,0.0588566l0.425814 0.0683809 -0.00631302 -0.00845385z"/>
    <path id="_745899688" class="fil22" d="M5.43276 2.48374c0.0114745,0.0337627 0.00825112,0.0653926 -0.00720503,0.0706515 -0.0154521,0.00525882 -0.0373226,-0.0178362 -0.0487809,-0.0516029 -0.011507,-0.0337465 -0.00825923,-0.0653845 0.00719287,-0.0706555 0.0154683,-0.00524666 0.0373105,0.0178484 0.0487931,0.051607z"/>
    <path id="_745899352" class="fil22" d="M5.34925 2.47145c0.0106433,0.0312853 0.00764698,0.0606082 -0.00668604,0.0654737 -0.0143209,0.00487769 -0.0345736,-0.0165347 -0.0452129,-0.0478281 -0.0106514,-0.0312894 -0.00765509,-0.0606041 0.00668199,-0.0654737 0.0143168,-0.0048858 0.0345695,0.0165266 0.0452169,0.0478281z"/>
    <path id="_745899736" class="fil22" d="M5.26943 2.46043c0.00983241,0.0289174 0.00705906,0.0560022 -0.00619543,0.0605028 -0.0132221,0.00449655 -0.0319422,-0.0152818 -0.0417746,-0.0441911 -0.00983241,-0.0289093 -0.00706717,-0.0560103 0.00618327,-0.0605068 0.0132383,-0.00450466 0.0319381,0.0152859 0.0417867,0.0441952z"/>
    <path id="_745899208" class="fil22" d="M5.19213 2.45182c0.00928504,0.0273037 0.00666982,0.0528963 -0.00583052,0.0571415 -0.0125125,0.00426139 -0.0301906,-0.0144303 -0.0394553,-0.0417462 -0.00930531,-0.0272996 -0.00667793,-0.0528842 0.00582241,-0.0571415 0.0124922,-0.00425733 0.0301662,0.0144425 0.0394634,0.0417462z"/>
    <path id="_745899424" class="fil23" d="M5.04736 2.37081l-0.32884 -0.0314272c0,0 0.0348534,0.0492513 0.134548,0.0985106l0.160976 0.0360373c0,0 0.0780835,0.0288201 0.109308,0.0588566l0.00711177 0.00113934 -0.0831031 -0.163117z"/>
    <path id="_745900000" class="fil24" d="M5.12881 2.52155c-0.0340911,-0.0303811 -0.10741,-0.0576686 -0.110618,-0.0588444l-0.000770375 -0.000275713 -0.000774429 -0.000174348 -0.159561 -0.0357292c-0.0544655,-0.0270564 -0.0889053,-0.0541168 -0.108335,-0.0722246l0.678757 0.0648493c0.00182863,0.00230301 0.00307339,0.00391675 0.0036532,0.00468712l0.0934626 0.161272 -0.395814 -0.06356zm0.41404 0.0711664l-0.101698 -0.175487c0,0 -0.00265982,-0.0036086 -0.00749696,-0.00950804l-0.715139 -0.0683363c0,0 0.0348534,0.0492513 0.134548,0.0985106l0.160976 0.0360373c0,0 0.0780835,0.0288201 0.109308,0.0588566l0.425814 0.0683809 -0.00631302 -0.00845385z"/>
    <path id="_745900408" class="fil25" d="M5.47969 2.50756l-0.0425247 -0.00782133c-0.0010988,-0.00520611 -0.0025544,-0.0105703 -0.00439924,-0.0159954 -0.0103838,-0.0305352 -0.029254,-0.052349 -0.0441992,-0.052349 -0.0015813,0 -0.00312204,0.000243276 -0.00459386,0.000741992 -0.0131329,0.00448034 -0.0174551,0.0280254 -0.0113772,0.0557224l-0.0197094 -0.00362481c-0.000956886,-0.0041803 -0.00216921,-0.00846196 -0.00363698,-0.0127801 -0.00962968,-0.0283052 -0.0271091,-0.0485255 -0.0409596,-0.0485255 -0.00146777,0 -0.00289093,0.000218949 -0.00425733,0.000697392 -0.0118719,0.00402622 -0.015963,0.0248182 -0.010988,0.0496l-0.0209339 -0.00384782c-0.000758211,-0.0029477 -0.00164211,-0.00593999 -0.00267198,-0.00895256 -0.00891202,-0.0261522 -0.0250534,-0.0448358 -0.0378538,-0.0448358 -0.00135424,0 -0.00266793,0.000210839 -0.00393296,0.000640627 -0.0105176,0.0035721 -0.0144222,0.0213596 -0.0106839,0.0429991l-0.0238532 -0.00438708c-0.00030815,-0.00100149 -0.000632518,-0.00201108 -0.000981214,-0.00302068 -0.0084133,-0.0246966 -0.0236708,-0.0423503 -0.0357535,-0.0423503 -0.00126909,0 -0.00251791,0.000190566 -0.00370996,0.000604136 -0.00905393,0.0030815 -0.0129261,0.0173415 -0.010842,0.0353359l-0.0622868 -0.0114664 -0.0257427 -0.0505041 0.373717 0.0357048c0.00182863,0.00230301 0.00307339,0.00391675 0.0036532,0.00468712l0.0485214 0.0837275z"/>
    <path id="_745900240" class="fil26" d="M5.43716 2.49974l-0.0645695 -0.01188c-0.00607785,-0.027697 -0.00175564,-0.0512421 0.0113772,-0.0557224 0.00147182,-0.000498716 0.00301257,-0.000741992 0.00459386,-0.000741992 0.0149453,0 0.0338154,0.0218138 0.0441992,0.052349 0.00184484,0.00542506 0.00330045,0.0107893 0.00439924,0.0159954z"/>
    <path id="_745900096" class="fil26" d="M5.35288 2.48423l-0.0598419 -0.0110082c-0.004975,-0.0247817 -0.000883903,-0.0455737 0.010988,-0.0496 0.0013664,-0.000478443 0.00278957,-0.000697392 0.00425733,-0.000697392 0.0138505,0 0.0313299,0.0202203 0.0409596,0.0485255 0.00146777,0.00431815 0.00268009,0.00859981 0.00363698,0.0127801z"/>
    <path id="_745900168" class="fil26" d="M5.27211 2.46938l-0.0551426 -0.0101487c-0.00373834,-0.0216394 0.000166239,-0.039427 0.0106839,-0.0429991 0.00126504,-0.000429788 0.00257873,-0.000640627 0.00393296,-0.000640627 0.0128004,0 0.0289418,0.0186836 0.0378538,0.0448358 0.00102987,0.00301257 0.00191377,0.00600487 0.00267198,0.00895256z"/>
    <path id="_745899832" class="fil26" d="M5.19311 2.45484l-0.0512867 -0.00943101c-0.00208407,-0.0179943 0.00178808,-0.0322544 0.010842,-0.0353359 0.00119205,-0.000413569 0.00244087,-0.000604136 0.00370996,-0.000604136 0.0120827,0 0.0273402,0.0176537 0.0357535,0.0423503 0.000348696,0.0010096 0.000673064,0.00201919 0.000981214,0.00302068z"/>
    <path id="_745900192" class="fil27" d="M5.07954 2.43395l-0.301679 -0.0554913c-0.0120706,-0.00902149 -0.021684,-0.0172402 -0.0291039,-0.0241573l0.30504 0.0291445 0.0257427 0.0505041z"/>
    <path id="_745899856" class="fil28" d="M5.49515 2.51041l-0.0154602 -0.00284633 -0.0485214 -0.0837275c-0.000579808,-0.000770375 -0.00182457,-0.00238411 -0.0036532,-0.00468712l-0.373717 -0.0357048 -0.30504 -0.0291445c0.00741992,0.00691715 0.0170334,0.0151358 0.0291039,0.0241573l-0.0251629 -0.0046263c-0.024283,-0.0204798 -0.0341762,-0.0344479 -0.0341762,-0.0344479l0 0 0.715139 0.0683363c0.00483714,0.00589945 0.00749696,0.00950804 0.00749696,0.00950804l0.0539911 0.0931829z"/>
    <path id="_745900480" class="fil29" d="M2.67935 2.32901c-0.000194621,0 -0.000385187,-1.21638e-005 -0.000587917,-1.21638e-005l-0.272372 -0.00794297c-0.0112799,-0.000336532 -0.0201149,-0.0104041 -0.019754,-0.0224909l0.000648736 -0.0213272 0.313246 0.00834843 -0.000673064 0.022126c-0.000368969,0.0118759 -0.00949182,0.0212988 -0.0205082,0.0212988z"/>
    <path id="_745900624" class="fil30" d="M2.70054 2.28559l-0.313246 -0.00834843 0.00175564 -0.0572915c0.000377078,-0.0118881 0.00950804,-0.0213069 0.0205366,-0.0213069 0.000182457,0 0.000368969,1.21638e-005 0.00056359,1.21638e-005l0.272376 0.00795919c0.0112758,0.000316259 0.020123,0.010396 0.0197378,0.0224828l-0.00172321 0.0564928z"/>
    <path id="_745900648" class="fil31" d="M2.4079 2.27174l0.272388 0.00795513c0.0112475,0.000324368 0.0207231,-0.00919989 0.0210799,-0.0212988l0.000887958 -0.0292986c0.000385187,-0.0120868 -0.00846196,-0.0221665 -0.0197378,-0.0224828l-0.272376 -0.00795919c-0.0112758,-0.000328423 -0.0207231,0.00920395 -0.0211002,0.0212948l-0.000883903 0.0293067c-0.000368969,0.0120868 0.00847006,0.0221584 0.0197419,0.0224828z"/>
    <path id="_745900720" class="fil21" d="M0.0791337 2.27631l-0.00734694 0.141915 -0.0116854 0.009208c0.0222963,-0.000271658 0.045594,-0.000835248 0.0682187,-0.00150831 0.0533342,-0.0470212 0.0756346,-0.104605 0.0847128,-0.149615l-0.133899 0z"/>
    <path id="_745900696" class="fil24" d="M0.515981 2.25717l-0.000543317 0.000587917 -0.000450061 0.000632518c-0.000956886,0.00137856 -0.0986485,0.137828 -0.247465,0.149814 -0.00436275,0.000239222 -0.0973348,0.00514529 -0.183596,0.00687661l0.00909447 -0.175293 0.431491 0c4.46006e-005,0.00388836 -0.00153264,0.00980403 -0.00853088,0.0173821zm0.0171266 -0.0293594l-0.451444 0 -0.00987701 0.190412 -0.0116854 0.009208c0.0949264,-0.001188 0.20822,-0.00729423 0.20822,-0.00729423 0.15654,-0.0124841 0.256454,-0.154866 0.256454,-0.154866 0.0199811,-0.0216394 0.00833221,-0.0374605 0.00833221,-0.0374605z"/>
    <polygon id="_745901152" class="fil10" points="1.54086,2.83874 3.94799,2.92492 3.94799,2.98674 1.60231,2.98674 "/>
    <polygon id="_745901248" class="fil32" points="3.97194,2.67597 3.94799,2.67597 3.94799,2.47439 3.93939,2.3767 3.96354,2.37833 3.97194,2.47385 "/>
    <polygon id="_745900792" class="fil33" points="3.95754,2.31014 3.93341,2.30878 3.91781,2.13172 3.92975,2.13067 3.9418,2.13112 "/>
    <polygon id="_745901128" class="fil34" points="3.9418,2.13112 3.92975,2.13067 3.94167,2.12961 "/>
    <polygon id="_745900840" class="fil34" points="3.96354,2.37833 3.93939,2.3767 3.93341,2.30878 3.95754,2.31014 "/>
    <path id="_745902016" class="fil32" d="M2.33965 2.67597l-0.0251345 0c-0.0342573,-0.106604 -0.0667671,-0.239676 -0.0904785,-0.40308l0.024283 0.000648736c0.0240114,0.163984 0.0569063,0.296752 0.0913299,0.402431z"/>
    <path id="_745901800" class="fil33" d="M2.24832 2.27354l-0.024283 -0.000648736c-0.0092972,-0.064083 -0.0172361,-0.132796 -0.0234072,-0.206444l0.0176213 -0.00147588 0.00630085 0.000239222c0.00624409,0.0744385 0.0143209,0.143801 0.0237681,0.20833z"/>
    <path id="_745901896" class="fil34" d="M2.22455 2.06521l-0.00630085 -0.000239222 0.00623192 -0.000523044c2.83822e-005,0.00025544 4.46006e-005,0.000506825 6.89282e-005,0.000762265z"/>
    <path id="_745901968" class="fil17" d="M5.32559 2.7576c0.0151196,0.0651777 0.0419732,0.191458 0.0493729,0.294725 0.000587917,0.00830788 0.00755778,0.0146979 0.0158819,0.0146979l0.0774672 0c0.00948777,0 0.0185498,-0.00375051 0.0251994,-0.0105014 0.0265009,-0.0268739 0.0864522,-0.109563 0.0668401,-0.294616 0,0 -0.00697797,-0.0314151 -0.0294161,-0.0378943l-0.170764 -0.00789026c-0.0224382,-0.00102581 -0.039654,0.0196121 -0.0345817,0.0414786z"/>
    <path id="_745901632" class="fil17" d="M3.87172 2.06545c-0.115568,-0.0861522 -0.220647,-0.157525 -0.314126,-0.216475l0.0169807 0.201672 0.297146 0.0148034z"/>
    <path id="_745901368" class="fil35" d="M5.62953 2.82925c-0.000733883,-0.0201635 -0.00227463,-0.0434734 -0.00532775,-0.0669212 0.00305312,0.0234478 0.00459792,0.0467658 0.00532775,0.0669212z"/>
    <path id="_745901608" class="fil36" d="M5.2342 3.15168l0 0c-0.0359238,-0.23599 -0.214902,-0.424959 -0.445694,-0.475706l0.000210839 0c0.230723,0.0508244 0.409568,0.239785 0.445495,0.475706l-1.21638e-005 0z"/>
    <path id="_745901416" class="fil37" d="M5.47905 3.25976l0.0439843 -0.108088 -0.193676 0c7.29828e-005,-0.00411542 0.000117583,-0.00825112 0.000117583,-0.0123868 0,-0.180093 -0.0715597,-0.34351 -0.187789,-0.463319l0.461053 0c0.0108177,0.0244249 0.0174429,0.0555035 0.021457,0.086363 0.00305312,0.0234478 0.00459386,0.0467577 0.00532775,0.0669212l0 0c0.00010542,0.00304095 0.000166239,0.00607379 0.000166239,0.00911475 2.83822e-005,0.0339735 -0.00668199,0.067651 -0.0194945,0.0991877l-0.131146 0.322207zm-0.120499 -0.543682c-0.0216394,0 -0.0379186,0.0201757 -0.032968,0.0415151 0.0151196,0.0651777 0.0419732,0.191458 0.0493729,0.294725 0.000587917,0.00830788 0.00755778,0.0146979 0.0158819,0.0146979l0.0774672 0c0.00948777,0 0.0185498,-0.00375051 0.0251994,-0.0105014 0.0265009,-0.0268739 0.0864522,-0.109563 0.0668401,-0.294616 0,0 -0.00697797,-0.0314151 -0.0294161,-0.0378943l-0.170764 -0.00789026c-0.000535208,-2.0273e-005 -0.00107852,-3.64914e-005 -0.00161373,-3.64914e-005zm-0.0345736 0.435594l-0.089777 0c-0.0359157,-0.235921 -0.21476,-0.424882 -0.445483,-0.475706l0.232653 0c0.162431,0.103603 0.276885,0.275778 0.302607,0.475706z"/>
    <path id="_745901344" class="fil38" d="M5.32936 3.15168l-0.00538046 0c-0.0257224,-0.199928 -0.140176,-0.372103 -0.302607,-0.475706l0.120316 0c0.116229,0.119809 0.187789,0.283226 0.187789,0.463319 0,0.00413569 -4.46006e-005,0.00827139 -0.000117583,0.0123868z"/>
    <path id="_745902184" class="fil37" d="M5.24082 3.23923l0 0c0,-0.00025544 0,-0.00051088 0,-0.000762265 0,0.000251385 0,0.000506825 0,0.000762265z"/>
    <path id="_745902136" class="fil36" d="M5.24082 3.23823c0,-4.46006e-005 0,-0.00010542 0,-0.00015813 0,1.62184e-005 0,6.0819e-005 0,8.10921e-005 0,2.43276e-005 0,4.86552e-005 0,7.70375e-005z"/>
    <path id="_745902400" class="fil37" d="M5.24082 3.23815c0,-2.0273e-005 0,-6.48736e-005 0,-8.10921e-005 0,-0.000113529 0,-0.000235167 0,-0.00036086 0,0.00015002 0,0.000291931 0,0.000441952z"/>
    <path id="_745902232" class="fil36" d="M5.24082 3.23741c0,-9.32559e-005 0,-0.000182457 0,-0.000275713 0,3.24368e-005 0,9.32559e-005 0,0.000125693 0,5.67644e-005 0,0.000109474 0,0.00015002z"/>
    <path id="_745902256" class="fil37" d="M5.24082 3.23726c0,-3.24368e-005 0,-9.32559e-005 0,-0.000125693 0,-5.67644e-005 0,-0.000125693 0,-0.000170293 0,9.73105e-005 0,0.00020273 0,0.000295986z"/>
    <path id="_745902592" class="fil36" d="M5.24082 3.23659c0,-0.000113529 0,-0.000235167 -8.10921e-006,-0.00035275l0 3.64914e-005c8.10921e-006,8.10921e-005 8.10921e-006,0.00015813 8.10921e-006,0.000239222 0,4.0546e-005 0,4.0546e-005 0,7.70375e-005z"/>
    <path id="_745902328" class="fil37" d="M5.24082 3.23662l0 -2.83822e-005c0,-3.64914e-005 0,-3.64914e-005 0,-7.70375e-005 0,3.64914e-005 0,6.89282e-005 0,0.00010542zm-8.10921e-006 -0.000344641l0 -4.0546e-005c0,4.0546e-006 0,2.43276e-005 0,4.0546e-005z"/>
    <path id="_745902352" class="fil36" d="M5.24081 3.23571c0,-6.0819e-005 0,-0.000129747 0,-0.000198676 0,4.46006e-005 0,8.51467e-005 0,0.000129747 0,4.46006e-005 0,3.64914e-005 0,6.89282e-005z"/>
    <path id="_745902760" class="fil37" d="M5.24081 3.23584c0,-5.27098e-005 0,-8.10921e-005 0,-0.000133802 0,-3.24368e-005 0,-2.43276e-005 0,-6.89282e-005 0,6.89282e-005 0,0.000133802 0,0.00020273zm0 -0.000762265c0,-8.10921e-005 0,-0.000133802 0,-0.000218949 0,7.70375e-005 0,0.000145966 0,0.000218949z"/>
    <path id="_745902448" class="fil39" d="M5.23714 3.30425c0.00240843,-0.0213475 0.00368158,-0.0430356 0.00368158,-0.0650156l0 0c0,-0.00025544 0,-0.00051088 0,-0.000762265 0,-8.10921e-005 0,-0.00015002 0,-0.000239222 0,-2.83822e-005 0,-5.27098e-005 0,-7.70375e-005 0,-0.00015002 0,-0.000291931 0,-0.000441952 0,-9.32559e-005 0,-0.000190566 0,-0.000300041 0,-4.0546e-005 0,-9.32559e-005 0,-0.00015002 0,-9.32559e-005 0,-0.000198676 0,-0.000295986 0,-0.000121638 0,-0.000218949 0,-0.000340587 0,-3.64914e-005 0,-6.89282e-005 0,-0.00010542 0,-8.10921e-005 0,-0.00015813 -8.10921e-006,-0.000239222 0,-1.62184e-005 0,-3.64914e-005 0,-4.0546e-005 0,-0.000141911 0,-0.000263549 0,-0.000397351 0,-6.89282e-005 0,-0.000133802 0,-0.00020273 0,-4.46006e-005 0,-8.51467e-005 0,-0.000129747 0,-0.000133802 0,-0.000291931 0,-0.000429788 0,-7.29828e-005 0,-0.000141911 0,-0.000218949 -0.000214894,-0.0282444 -0.00246114,-0.0560387 -0.00659278,-0.0831842l-1.21638e-005 0 0.288834 0 -0.0439843 0.108088 -0.241918 0.044483z"/>
    <path id="_745903456" class="fil39" d="M5.46831 3.06702l-0.0774672 0c-0.0083241,0 -0.015294,-0.00639005 -0.0158819,-0.0146979 -0.00739965,-0.103267 -0.0342533,-0.229547 -0.0493729,-0.294725 -0.00495067,-0.0213394 0.0113286,-0.0415151 0.032968,-0.0415151 0.000535208,0 0.00107852,1.62184e-005 0.00161373,3.64914e-005l0.170764 0.00789026c0.0224382,0.00647926 0.0294161,0.0378943 0.0294161,0.0378943 0.0196121,0.185052 -0.0403392,0.267742 -0.0668401,0.294616 -0.00664955,0.00675091 -0.0157116,0.0105014 -0.0251994,0.0105014z"/>
    <path id="_745903000" class="fil36" d="M4.08736 3.23823c0,-2.83822e-005 0,-5.27098e-005 0,-7.70375e-005 0,-2.0273e-005 0,-6.48736e-005 0,-8.10921e-005 0,5.27098e-005 0,0.000113529 0,0.00015813zm-2.53986 0c0,-4.46006e-005 0,-0.00010542 0,-0.00015813 0,1.62184e-005 0,6.0819e-005 0,8.10921e-005 0,2.43276e-005 0,4.86552e-005 0,7.70375e-005zm2.53986 -0.000806866c0,-5.27098e-005 0,-0.00010542 0,-0.00015002 0,-4.46006e-005 0,-9.73105e-005 0,-0.000133802 0,8.10921e-005 0,0.000194621 0,0.000283822zm-2.53986 -1.21638e-005c0,-9.32559e-005 0,-0.000182457 0,-0.000275713 0,3.24368e-005 0,9.32559e-005 0,0.000125693 0,5.67644e-005 0,0.000109474 0,0.00015002zm-1.21638e-005 -0.000814975c0,-0.000113529 0,-0.000235167 0,-0.00035275l0 3.64914e-005c0,8.10921e-005 0,0.00015813 0,0.000239222 0,4.0546e-005 0,4.0546e-005 0,7.70375e-005zm2.53987 0c0,-4.0546e-005 0,-6.89282e-005 0,-0.00010542 0,-5.27098e-005 8.10921e-006,-0.00010542 8.10921e-006,-0.000154075 0,-2.83822e-005 0,-7.29828e-005 0,-9.32559e-005 0,0.000125693 -8.10921e-006,0.000231112 -8.10921e-006,0.00035275zm-2.53987 -0.000887958c0,-6.0819e-005 0,-0.000129747 0,-0.000198676 0,4.46006e-005 0,8.51467e-005 0,0.000129747 0,4.46006e-005 0,3.64914e-005 0,6.89282e-005zm2.53988 -4.0546e-006c0,-2.0273e-005 0,-6.48736e-005 0,-8.10921e-005 0,-4.46006e-005 0,-8.51467e-005 0,-0.000133802 0,6.48736e-005 0,0.000141911 0,0.000214894zm0.006609 -0.0840276l0 0c0.0359197,-0.235921 0.214793,-0.424882 0.445491,-0.475706l0.000235167 0c-0.230812,0.0507474 -0.409799,0.239716 -0.445743,0.475706m-2.55309 0l0 0c-0.0359076,-0.23599 -0.214894,-0.424959 -0.44569,-0.475706l0.000231112 0c0.230715,0.0508244 0.409568,0.239785 0.445495,0.475706l-3.64914e-005 0z"/>
    <path id="_745903072" class="fil37" d="M4.08736 3.23923c0,-0.00025544 0,-0.00051088 0,-0.000762265 0,0.000251385 0,0.000506825 0,0.000762265l0 0zm-2.53986 0l0 0c0,-0.00025544 0,-0.00051088 0,-0.000762265 0,0.000251385 0,0.000506825 0,0.000762265zm2.53986 -0.00107852c0,-0.00015002 0,-0.000291931 0,-0.000441952 0,0.000113529 0,0.000247331 0,0.00036086 0,1.62184e-005 0,6.0819e-005 0,8.10921e-005zm-2.53986 0c0,-2.0273e-005 0,-6.48736e-005 0,-8.10921e-005 0,-0.000113529 0,-0.000235167 0,-0.00036086 0,0.00015002 0,0.000291931 0,0.000441952zm2.53986 -0.000879849c0,-0.00010542 0,-0.000210839 0,-0.00030815 0,6.0819e-005 0,0.00010542 0,0.000174348 0,3.64914e-005 0,8.92013e-005 0,0.000133802zm-2.53986 -1.21638e-005c0,-3.24368e-005 0,-9.32559e-005 0,-0.000125693 0,-5.67644e-005 0,-0.000125693 0,-0.000170293 0,9.73105e-005 0,0.00020273 0,0.000295986zm2.53986 -0.000636573c0,-4.46006e-005 0,-8.92013e-005 0,-0.000133802 0,3.64914e-005 0,6.48736e-005 0,0.00010542l0 2.83822e-005zm-2.53987 0l0 -2.83822e-005c0,-3.64914e-005 0,-3.64914e-005 0,-7.70375e-005 0,3.64914e-005 0,6.89282e-005 0,0.00010542zm2.53988 -0.000287877c0,-4.86552e-005 0,-8.10921e-005 0,-0.000125693 0,1.62184e-005 0,1.62184e-005 0,3.24368e-005 0,2.0273e-005 0,6.48736e-005 0,9.32559e-005zm-2.53988 -5.67644e-005l0 -4.0546e-005c0,4.0546e-006 0,2.43276e-005 0,4.0546e-005zm2.53988 -0.000421679c0,-7.70375e-005 0,-0.000154075 0,-0.000235167 0,1.62184e-005 0,6.0819e-005 0,8.10921e-005 0,5.27098e-005 0,0.000109474 0,0.000154075zm-2.53988 -1.62184e-005c0,-5.27098e-005 0,-8.10921e-005 0,-0.000133802 0,-3.24368e-005 0,-2.43276e-005 0,-6.89282e-005 0,6.89282e-005 0,0.000133802 0,0.00020273zm-4.0546e-006 -0.000762265c0,-6.48736e-005 0,-0.000141911 0,-0.000214894 0,7.29828e-005 0,0.00015002 0,0.000214894zm2.53988 0c0,-7.29828e-005 0,-0.00015002 8.10921e-006,-0.000218949 -8.10921e-006,8.51467e-005 -8.10921e-006,0.000129747 -8.10921e-006,0.000218949zm0.006609 -0.0834032l-0.0897892 0c0.0257305,-0.199928 0.140208,-0.372103 0.302631,-0.475706l0.232649 0c-0.230699,0.0508244 -0.409572,0.239785 -0.445508,0.475706m-0.0951494 0l-2.36278 0c6.89282e-005,-0.00411542 0.000113529,-0.00825112 0.000113529,-0.0123868 0,-0.0524828 -0.0060819,-0.103567 -0.0175645,-0.152546l0.835066 0c0.0546155,0.0869915 0.0961387,0.121135 0.0983809,0.122944l0.00329234 0.00265982 1.41662 0 0 -0.436377 0.214561 0c-0.116237,0.119809 -0.187805,0.283226 -0.187805,0.463319 0,0.00413569 3.64914e-005,0.00827139 0.000113529,0.0123868zm-2.36814 0l-0.0898013 0c-0.0358913,-0.235921 -0.214744,-0.424882 -0.445459,-0.475706l0.232645 0c0.162431,0.103603 0.276893,0.275778 0.302615,0.475706zm0.759111 -0.282537l-0.824771 -0.0295337c-0.030523,-0.0604176 -0.0699784,-0.115532 -0.116639,-0.163636l0.866148 0c0.0250737,0.0780552 0.051092,0.141952 0.0752615,0.193169z"/>
    <path id="_745903312" class="fil38" d="M4.00418 3.15168l-0.0053764 0c-7.70375e-005,-0.00411542 -0.000113529,-0.00825112 -0.000113529,-0.0123868 0,-0.180093 0.0715678,-0.34351 0.187805,-0.463319l0.120316 0c-0.162423,0.103603 -0.276901,0.275778 -0.302631,0.475706z"/>
    <path id="_745903288" class="fil38" d="M1.63603 3.15168l-0.00536424 0c-0.0257224,-0.199928 -0.140184,-0.372103 -0.302615,-0.475706l0.120316 0c0.0466604,0.0481038 0.0861157,0.103218 0.116639,0.163636l-0.0241411 -0.000859576 0.0614516 0.147997 0.016263 0c0.0114826,0.0489796 0.0175645,0.100064 0.0175645,0.152546 0,0.00413569 -4.46006e-005,0.00827139 -0.000113529,0.0123868z"/>
    <path id="_745903576" class="fil39" d="M4.09239 3.3155l-2.54993 0c0.00329234,-0.0249682 0.00503987,-0.0504271 0.00503987,-0.0762711l0 0c0,-0.00025544 0,-0.00051088 0,-0.000762265 0,-8.10921e-005 0,-0.00015002 0,-0.000239222 0,-2.83822e-005 0,-5.27098e-005 0,-7.70375e-005 0,-0.00015002 0,-0.000291931 0,-0.000441952 0,-9.32559e-005 0,-0.000190566 0,-0.000300041 0,-4.0546e-005 0,-9.32559e-005 0,-0.00015002 0,-9.32559e-005 0,-0.000198676 0,-0.000295986 0,-0.000121638 -1.21638e-005,-0.000218949 -1.21638e-005,-0.000340587 0,-3.64914e-005 0,-6.89282e-005 0,-0.00010542 0,-8.10921e-005 0,-0.00015813 0,-0.000239222 0,-1.62184e-005 0,-3.64914e-005 0,-4.0546e-005 0,-0.000141911 0,-0.000263549 0,-0.000397351 0,-6.89282e-005 0,-0.000133802 0,-0.00020273 0,-4.46006e-005 0,-8.51467e-005 0,-0.000129747 0,-0.000133802 0,-0.000291931 -4.0546e-006,-0.000429788 0,-6.48736e-005 0,-0.000141911 0,-0.000214894 -0.000214894,-0.0282565 -0.00245303,-0.0560265 -0.00658467,-0.0831883l-3.64914e-005 0 2.55311 0c-0.00414786,0.0271456 -0.00639005,0.0549399 -0.00660089,0.0831842 -8.10921e-006,6.89282e-005 -8.10921e-006,0.000145966 -8.10921e-006,0.000218949 0,0.000129747 0,0.000267604 0,0.000409515 0,4.86552e-005 0,8.92013e-005 0,0.000133802 0,8.10921e-005 0,0.00015813 0,0.000235167 0,0.000121638 0,0.000239222 0,0.00035275 0,4.46006e-005 0,7.70375e-005 0,0.000125693 0,4.86552e-005 -8.10921e-006,0.000101365 -8.10921e-006,0.000154075 0,4.46006e-005 0,8.92013e-005 0,0.000133802 0,0.000121638 0,0.000218949 0,0.000340587 0,9.73105e-005 0,0.00020273 0,0.00030815 0,4.46006e-005 0,9.73105e-005 0,0.00015002 0,9.73105e-005 0,0.000182457 0,0.000287877 0,0.00015002 0,0.000291931 0,0.000441952 0,2.43276e-005 0,4.86552e-005 0,7.70375e-005 0,8.92013e-005 0,0.00015813 0,0.000239222 0,0.000251385 0,0.000506825 0,0.000762265l0 0c0,0.025844 0.00171915,0.0513029 0.00503176,0.0762711z"/>
    <path id="_745902856" class="fil37" d="M3.94799 3.08841l-1.38395 0c-0.00964995,-0.008762 -0.0413488,-0.0397148 -0.0818746,-0.101669l1.46583 0 0 -0.0618246 -1.53125 -0.0548142c-0.0244817,-0.0505609 -0.0512177,-0.114684 -0.0770942,-0.194134l1.60835 0 0 0.412442z"/>
    <path id="_745903096" class="fil38" d="M3.94799 2.98674l-1.46583 0c-0.0188742,-0.0288688 -0.0396743,-0.064456 -0.0610339,-0.107674 -0.0014556,-0.00294364 -0.00292337,-0.00592783 -0.00439113,-0.00896473l1.53125 0.0548142 0 0.0618246zm-1.49435 0l-0.851329 0 -0.0614516 -0.147997 0.0241411 0.000859576 0.824771 0.0295337c0.00371402,0.00787404 0.00738343,0.0154399 0.0110001,0.022726 0.0183511,0.0369253 0.0362157,0.0683565 0.052868,0.0948777z"/>
    <path id="_745902904" class="fil40" d="M3.97194 3.11235l-1.41662 0 -0.00329234 -0.00265982c-0.0022422,-0.00180835 -0.0437654,-0.0359522 -0.0983809,-0.122944l0.0285241 0c0.0405258,0.0619543 0.0722246,0.0929072 0.0818746,0.101669l1.38395 0 0 -0.412442 0.0239424 0 0 0.436377zm-1.5552 -0.242242l-0.0269672 -0.000964995c-0.0241695,-0.0512177 -0.0501879,-0.115114 -0.0752615,-0.193169l0.0251345 0c0.0258765,0.0794499 0.0526125,0.143573 0.0770942,0.194134z"/>
    <path id="_745903144" class="fil41" d="M2.48217 2.98674l-0.0285241 0c-0.0166523,-0.0265212 -0.0345168,-0.0579524 -0.052868,-0.0948777 -0.00361671,-0.00728612 -0.00728612,-0.014852 -0.0110001,-0.022726l0.0269672 0.000964995c0.00146777,0.0030369 0.00293553,0.00602108 0.00439113,0.00896473 0.0213596,0.043218 0.0421598,0.0788053 0.0610339,0.107674z"/>
    <path id="_745903672" class="fil36" d="M0.394018 3.23818c0,-1.62184e-005 0,-3.24368e-005 0,-6.0819e-005 0,-1.62184e-005 0,-3.64914e-005 0,-5.27098e-005 0,3.64914e-005 0,8.10921e-005 0,0.000113529zm1.21638e-005 -0.000798757c0,-4.46006e-005 0,-9.73105e-005 0,-0.000129747 0,-4.46006e-005 0,-8.10921e-005 0,-0.000117583 0,6.48736e-005 0,0.000178403 0,0.000247331zm0 -0.000806866c0,-9.73105e-005 0,-0.00020273 0,-0.000300041 0,0.00010542 0,0.00020273 0,0.000300041zm8.10921e-006 -0.000875794l0 -4.0546e-005c0,-4.0546e-006 0,-2.43276e-005 0,-4.0546e-005 0,1.62184e-005 0,6.0819e-005 0,8.10921e-005zm0.00659278 -0.0840276l0 0c0.0359238,-0.235921 0.214797,-0.424882 0.445504,-0.475706l0.000239222 0c-0.230804,0.0507474 -0.409799,0.239716 -0.445743,0.475706z"/>
    <path id="_745903840" class="fil37" d="M0.17715 3.26904c-0.000113529,-9.73105e-005 -0.000239222,-0.00020273 -0.00036086,-0.000300041 0.000121638,9.73105e-005 0.000239222,0.00020273 0.00036086,0.000300041zm-0.000462225 -0.000397351c-9.32559e-005,-7.70375e-005 -0.000178403,-0.00015002 -0.000275713,-0.000227058 9.73105e-005,7.70375e-005 0.000182457,0.00015813 0.000275713,0.000227058zm-0.000368969 -0.000304095c-0.000247331,-0.000210839 -0.000494662,-0.000425733 -0.000729828,-0.000632518 0.000235167,0.000206785 0.000482498,0.000421679 0.000729828,0.000632518zm-0.00081903 -0.000701446c-9.73105e-005,-8.92013e-005 -0.00020273,-0.000178403 -0.000295986,-0.000263549 9.32559e-005,8.51467e-005 0.000198676,0.000174348 0.000295986,0.000263549zm-0.000368969 -0.000328423c-0.00025544,-0.000210839 -0.000506825,-0.000437897 -0.000754156,-0.000648736 0.000247331,0.000218949 0.000498716,0.000437897 0.000754156,0.000648736zm-0.000798757 -0.000685228c-0.100201,-0.0875267 -0.154399,-0.299015 -0.154399,-0.299015l-0.0199324 -0.137593 0.0348939 -0.0299108 -0.0149615 -0.0937181 0 -0.0304217 0.473241 0c-0.116245,0.119809 -0.187813,0.283226 -0.187813,0.463319 0,0.00413569 3.24368e-005,0.00827139 0.000113529,0.0123868l-0.214918 0c0.0227423,0.0437735 0.0507515,0.0860954 0.0837762,0.114952zm0.219686 -0.027397c0,-0.00025544 0,-0.000498716 0,-0.000758211 0,0.000259495 0,0.000502771 0,0.000758211l0 0zm0 -0.00110691c0,-0.000133802 1.21638e-005,-0.000263549 1.21638e-005,-0.000397351 0,0.000113529 0,0.000231112 -1.21638e-005,0.000344641 0,1.62184e-005 0,3.64914e-005 0,5.27098e-005zm1.21638e-005 -0.000867685c0,-8.92013e-005 0,-0.000178403 0,-0.000263549 0,4.86552e-005 0,9.32559e-005 0,0.000145966 0,3.64914e-005 0,7.29828e-005 0,0.000117583zm0 -0.00145155c8.10921e-006,-4.46006e-005 8.10921e-006,-9.73105e-005 8.10921e-006,-0.000141911l0 4.0546e-005c0,3.24368e-005 -8.10921e-006,6.89282e-005 -8.10921e-006,0.000101365zm0.00660089 -0.084129l-0.0897851 0c0.0257427,-0.199928 0.14022,-0.372103 0.302652,-0.475706l0.232637 0c-0.230707,0.0508244 -0.40958,0.239785 -0.445504,0.475706z"/>
    <path id="_745903696" class="fil38" d="M0.310846 3.15168l-0.00537235 0c-8.10921e-005,-0.00411542 -0.000113529,-0.00825112 -0.000113529,-0.0123868 0,-0.180093 0.0715678,-0.34351 0.187813,-0.463319l0.120324 0c-0.162431,0.103603 -0.276909,0.275778 -0.302652,0.475706z"/>
    <path id="_745904080" class="fil39" d="M0.399058 3.3155l-0.0431045 0 -0.144932 -0.0305676 -0.0338722 -0.01589 0 0c-0.000121638,-9.73105e-005 -0.000239222,-0.00020273 -0.00036086,-0.000300041l0 0c-3.24368e-005,-3.24368e-005 -6.89282e-005,-6.0819e-005 -0.000101365,-9.73105e-005l0 0c-9.32559e-005,-6.89282e-005 -0.000178403,-0.00015002 -0.000275713,-0.000227058l0 0c-2.43276e-005,-2.43276e-005 -6.89282e-005,-5.27098e-005 -9.32559e-005,-7.70375e-005l0 0c-0.000247331,-0.000210839 -0.000494662,-0.000425733 -0.000729828,-0.000632518l0 0c-3.64914e-005,-2.83822e-005 -5.27098e-005,-4.46006e-005 -8.92013e-005,-6.89282e-005l0 0c-9.73105e-005,-8.92013e-005 -0.00020273,-0.000178403 -0.000295986,-0.000263549l0 0c-2.83822e-005,-2.0273e-005 -5.67644e-005,-3.64914e-005 -7.29828e-005,-6.48736e-005l0 0c-0.00025544,-0.000210839 -0.000506825,-0.000429788 -0.000754156,-0.000648736l0 0c-2.83822e-005,-1.62184e-005 -2.83822e-005,-2.83822e-005 -4.46006e-005,-3.64914e-005l0 0c-0.0330247,-0.0288566 -0.0610339,-0.0711785 -0.0837762,-0.114952l0.310076 0 0 0c-0.00417624,0.027397 -0.00642655,0.0554224 -0.00659278,0.0839465 0,1.62184e-005 0,3.64914e-005 0,4.0546e-005 0,4.46006e-005 0,9.73105e-005 -8.10921e-006,0.000141911 0,0.000170293 0,0.00030815 0,0.000474389 0,9.73105e-005 0,0.00020273 0,0.000300041 0,0.000141911 0,0.000271658 0,0.000413569 0,8.51467e-005 0,0.000174348 0,0.000263549 0,3.24368e-005 0,8.51467e-005 0,0.000129747 0,0.000113529 0,0.000218949 0,0.000340587 0,0.000133802 -1.21638e-005,0.000263549 -1.21638e-005,0.000397351 0,2.83822e-005 0,4.46006e-005 0,6.0819e-005 0,0.00010542 0,0.000190566 0,0.000287877 0,0.000259495 0,0.000502771 0,0.000758211l0 0c0,0.025844 0.00173132,0.0513029 0.00503987,0.0762711z"/>
    <path id="_745903744" class="fil34" d="M3.05403 1.59157c-0.0432707,-0.00188539 -0.105428,-0.00301257 -0.177081,-0.00359643 0.0716367,0.000583863 0.133818,0.00169888 0.177081,0.00359643z"/>
    <path id="_745903600" class="fil42" d="M3.87172 2.06545l-0.00910664 -0.000450061 0.00910664 0.000450061 0 0zm0 0c-0.00231112,-0.00172321 -0.00461819,-0.00343425 -0.00691715,-0.00514935l0 0c-0.0817367,-0.0607298 -0.15815,-0.114036 -0.228911,-0.160785l-8.10921e-006 8.10921e-006c-0.0269226,-0.0177875 -0.0530301,-0.0346263 -0.0782903,-0.0505487l0.0015002 0.0178646c-0.0452453,-0.0286904 -0.0874578,-0.0542546 -0.12641,-0.0769685l0.00607379 -0.0130193c-0.241658,-0.140687 -0.379653,-0.183722 -0.384583,-0.185239 0.00738343,0.00226652 0.312756,0.0975254 0.817546,0.473837zm-0.306094 -0.0152413l-0.248563 -0.0123868 0.00648736 -0.0139073 0.248563 0.0123787 -0.00648736 0.0139154zm-0.752984 -0.0375051l-0.177697 -0.00885931 0.00648736 -0.0139073 0.177701 0.0088512 -0.00649142 0.0139154zm-0.252399 -0.0125733l-0.0427963 -0.00213272 0.00648736 -0.0139154 0.0427963 0.00213678 -0.00648736 0.0139113zm-0.15877 -0.00790648l-0.146513 -0.00730639 -0.0144182 -0.067793 0.00998649 -0.0214042 0.0160562 0.0755454 0.141376 0.00704284 -0.00648736 0.0139154zm-0.218511 -0.345971l-0.0116245 -0.0546844c0,0 0.0135221,-0.000182457 0.0373469,-0.000482498l-0.00667388 0.0143127c-0.00495067,5.67644e-005 -0.00935802,0.000109474 -0.0131693,0.000166239l0.00410326 0.0192796 -0.00998243 0.0214083zm0.820206 -0.0421476c-0.0464171,-0.00116773 -0.106843,-0.00192188 -0.18077,-0.00225841l0.00661711 -0.0141871c0.0163684,8.10921e-005 0.0323719,0.000186512 0.0479376,0.000312204 0.0716529,0.000583863 0.13381,0.00171104 0.177081,0.00359643l0 0c-0.0131166,-0.000571699 -0.0279808,-0.00107042 -0.0443168,-0.00150831l-0.00654818 0.0140451zm-0.616336 -0.000685228l0.00666171 -0.0142884c0.0599554,-0.000531153 0.127473,-0.00102987 0.196571,-0.00134613l-0.00664549 0.014256c-0.0692323,0.000328423 -0.136831,0.000835248 -0.196587,0.00137856zm0.315424 -0.00173942l0.00663333 -0.0142276c0.0036978,0 0.00736721,-1.21638e-005 0.0110447,-1.21638e-005 0.00359238,0 0.00717259,0 0.0107488,0 0.00736316,0 0.014702,0 0.0219881,1.21638e-005l-0.00662522 0.0142114c-0.00505609,0 -0.0101771,0 -0.0153386,0 -0.00942695,0 -0.0189269,0 -0.0284511,1.62184e-005z"/>
    <path id="_745903864" class="fil43" d="M3.31706 2.03782l-0.504421 -0.0251183 0.00649142 -0.0139154 0.504417 0.0251264 -0.00648736 0.0139073zm0.115621 -0.247951c-0.0650885,-0.0379511 -0.121062,-0.0679146 -0.166786,-0.0909853 -0.127092,-0.064156 -0.202479,-0.0893878 -0.214322,-0.093191 -0.0139235,-0.000596027 -0.030077,-0.00112312 -0.0484079,-0.0015894l0.00654818 -0.0140451c0.016336,0.000437897 0.0312002,0.000936613 0.0443168,0.00150831l0 0c0,0 5.27098e-005,1.62184e-005 0.000141911,4.46006e-005 0.0049304,0.00151642 0.142925,0.044552 0.384583,0.185239l-0.00607379 0.0130193z"/>
    <path id="_745903768" class="fil43" d="M2.24054 1.91712l-0.0575794 -0.270872 0.00998243 -0.0214083 0.0575835 0.270876 -0.00998649 0.0214042zm-0.0385309 -0.311726l0.00667388 -0.0143127c0.0388715,-0.000482498 0.105172,-0.00124882 0.184809,-0.00195432l-0.00666171 0.0142884c-0.0813515,0.000729828 -0.148184,0.00152048 -0.184821,0.00197865z"/>
    <path id="_745904128" class="fil43" d="M3.86261 2.065l-0.296987 -0.0147912 0.00648736 -0.0139154 0.00125693 6.0819e-005 0.00120422 0.0142925 0.288039 0.0143533zm0.00218949 -0.00469928c-0.0817367,-0.0607298 -0.158166,-0.114036 -0.228919,-0.160777l8.10921e-006 -8.10921e-006c0.0707609,0.0467496 0.147174,0.100055 0.228911,0.160785l0 0z"/>
    <path id="_745904176" class="fil43" d="M2.51744 1.99799l-0.115974 -0.00577375 0.00648736 -0.0139154 0.115974 0.00577375 -0.00648736 0.0139154zm0.0659724 -0.395956l0.00664549 -0.014256c0.0394634,-0.000174348 0.0794499,-0.000300041 0.118824,-0.000332477l-0.00663333 0.0142276c-0.0393824,3.64914e-005 -0.0793648,0.000166239 -0.118836,0.00036086z"/>
    <path id="_745904584" class="fil43" d="M2.63494 2.00384l-0.074702 -0.00371402 0.00648736 -0.0139113 0.074702 0.00371807 -0.00648736 0.0139073zm0.187452 -0.401998c-0.0240316,-0.000101365 -0.0494824,-0.000166239 -0.0763522,-0.000182457l0.00662522 -0.0142114c0.0260265,2.43276e-005 0.0515908,9.73105e-005 0.0763441,0.000206785l-0.00661711 0.0141871z"/>
    <path id="_745904992" class="fil44" d="M3.87172 2.06545l-1.61676 -0.0805325 -0.0836302 -0.393349c0,0 0.289726,-0.00401 0.548604,-0.00412759 -0.00367752,0 -0.00734694,1.21638e-005 -0.0110447,1.21638e-005 -0.0393742,3.24368e-005 -0.0793607,0.00015813 -0.118824,0.000332477 -0.0690985,0.000316259 -0.136616,0.000814975 -0.196571,0.00134613 -0.0796365,0.000705501 -0.145937,0.00147182 -0.184809,0.00195432 -0.0238248,0.000300041 -0.0373469,0.000482498 -0.0373469,0.000482498l0 0 0.0836221 0.393349 1.61676 0.0805325 0 0z"/>
    <path id="_745904512" class="fil34" d="M3.87172 2.06545l-0.00910664 -0.000450061 -0.288039 -0.0143533 -0.00120422 -0.0142925 0.252038 0.012553c-0.0973145,-0.0712313 -0.18652,-0.131483 -0.266314,-0.182068l-0.0015002 -0.0178646c0.0252602,0.0159224 0.0513678,0.0327612 0.0782903,0.0505487 0.0707528,0.0467415 0.147182,0.100047 0.228919,0.160777 0.00229896,0.0017151 0.00460603,0.00342614 0.00691715,0.00514935l0 0z"/>
    <path id="_745904464" class="fil42" d="M2.13416 1.9839l0 0 -0.000656846 -0.00820246 -0.00376673 0.00808488 -0.251284 -0.00654007 0.00655224 -0.0140533 0.233715 0.00608596 -0.0286458 -0.360158c-0.0131247,0.000259495 -0.0266266,0.000579808 -0.0404203,0.000977159l0.00666577 -0.0142844c-0.154209,0.0041438 -0.348294,0.016709 -0.53048,0.0307704l-0.00687255 0.0147385c-0.0654413,0.00507636 -0.129249,0.0103352 -0.189022,0.0154521l0.00689688 -0.0147993c-0.0274578,0.00234356 -0.0540884,0.00466279 -0.0796689,0.00691715l-0.00690904 0.0148196c-0.0156629,0.00138667 -0.0309042,0.00275713 -0.0456873,0.00408298l0.00690904 -0.0148196c-0.0462225,0.00415191 -0.0880984,0.00804028 -0.123986,0.0114299l-0.00691715 0.0148439c-0.0631585,0.00597243 -0.106441,0.0102906 -0.120312,0.0116854l-0.143018 0.132813 0.0158454 -0.0340019 -0.167934 0.155952 -0.000125693 -8.10921e-006 0.289061 -0.268423c0,0 0.747515,-0.0761941 1.14909,-0.0825923l0.0309731 0.38923zm-0.765651 -0.0199203l-0.179647 -0.0046709 0.00656035 -0.0140492 0.179635 0.0046709 -0.00654818 0.0140492zm-0.255172 -0.00663738l-0.0432545 -0.00112312 0.00654818 -0.0140451 0.0432626 0.00111907 -0.00655629 0.0140492zm-0.160489 -0.00416813l-0.193607 -0.00503987 0.00654818 -0.0140451 0.193607 0.00503582 -0.00654818 0.0140492z"/>
    <path id="_745904368" class="fil43" d="M1.87845 1.97724l-0.509943 -0.0132626 0.00654818 -0.0140492 0.509947 0.0132586 -0.00655224 0.0140533zm-0.359485 -0.335924l0.00687255 -0.0147385c0.182185,-0.0140614 0.376271,-0.0266266 0.53048,-0.0307704l-0.00666577 0.0142844c-0.154529,0.00439519 -0.348846,0.0171185 -0.530687,0.0312245z"/>
    <polygon id="_745904800" class="fil43" points="0.759241,1.94813 0.665166,1.94569 0.833099,1.78974 0.817254,1.82374 0.700246,1.93238 0.765789,1.93409 "/>
    <polygon id="_745904944" class="fil43" points="2.13416,1.9839 2.12974,1.98378 2.1335,1.97569 2.13415,1.9839 "/>
    <path id="_745904896" class="fil43" d="M1.07008 1.95622l-0.117235 -0.00304501 0.00654818 -0.0140492 0.117235 0.00304906 -0.00654818 0.0140451zm0.0105014 -0.276974l0.00691715 -0.0148439c0.0358873,-0.00338965 0.0777632,-0.00727801 0.123986,-0.0114299l-0.00690904 0.0148196c-0.0465306,0.00419651 -0.0884066,0.00808488 -0.123994,0.0114543z"/>
    <path id="_745904608" class="fil43" d="M1.18886 1.95931l-0.0755251 -0.00196648 0.00655629 -0.0140492 0.0755291 0.00196648 -0.00656035 0.0140492zm0.0614029 -0.295601l0.00690904 -0.0148196c0.0255805,-0.00225436 0.0522111,-0.00457359 0.0796689,-0.00691715l-0.00689688 0.0147993c-0.0274902,0.00235572 -0.0541411,0.00467901 -0.0796811,0.00693743z"/>
    <path id="_745904680" class="fil9" d="M3.48337 1.96679l0 -0.138781c0,0 0.00197459,-0.0224138 0.0427112,-0.0224138 0,0 0.089408,0.0103433 0.119222,0.0517286 0,0 0.0417097,0.0724071 0.052645,0.156021 0,0 -0.0109353,0.035344 -0.0357738,0.0336086 0,0 -0.0903893,-0.00516556 -0.132115,-0.0258562 0,0 -0.0466887,-0.0267158 -0.0466887,-0.0543073z"/>
    <path id="_745904776" class="fil10" d="M3.52608 1.80559c-0.00390864,0 -0.00748074,0.00020273 -0.0107001,0.000587917 0.025175,0.030519 0.0972983,0.125681 0.117875,0.238248 0.0170658,0.00184484 0.0289174,0.00252196 0.0289174,0.00252196 0.0248385,0.00173537 0.0357738,-0.0336086 0.0357738,-0.0336086 -0.0109353,-0.0836221 -0.052645,-0.156021 -0.052645,-0.156021 -0.0298135,-0.0413853 -0.119222,-0.0517286 -0.119222,-0.0517286z"/>
   </g>
  </g>
 </g>
</svg>
