<?xml version="1.0" encoding="UTF-8"?>
<!DOCTYPE svg PUBLIC "-//W3C//DTD SVG 1.1//EN" "http://www.w3.org/Graphics/SVG/1.1/DTD/svg11.dtd">
<!-- Creator: CorelDRAW X5 -->
<svg xmlns="http://www.w3.org/2000/svg" xml:space="preserve" width="3.73933in" height="5.11127in" style="shape-rendering:geometricPrecision; text-rendering:geometricPrecision; image-rendering:optimizeQuality; fill-rule:evenodd; clip-rule:evenodd"
viewBox="0 0 2.12127 2.89956"
 xmlns:xlink="http://www.w3.org/1999/xlink">
 <defs>
  <style type="text/css">
   <![CDATA[
    .fil5 {fill:#45D8F9}
    .fil7 {fill:#F9B629}
    .fil2 {fill:#3E4095;fill-rule:nonzero}
    .fil14 {fill:#1DACD6;fill-rule:nonzero}
    .fil0 {fill:#3742F9;fill-rule:nonzero}
    .fil11 {fill:#45D8F9;fill-rule:nonzero}
    .fil9 {fill:#4C4C4C;fill-rule:nonzero}
    .fil3 {fill:#737BFB;fill-rule:nonzero}
    .fil4 {fill:#D7D9FE;fill-rule:nonzero}
    .fil6 {fill:#F7F6F0;fill-rule:nonzero}
    .fil8 {fill:#F9B629;fill-rule:nonzero}
    .fil12 {fill:#FD3712;fill-rule:nonzero}
    .fil15 {fill:#FD7840;fill-rule:nonzero}
    .fil10 {fill:#FED65D;fill-rule:nonzero}
    .fil13 {fill:#FFBC89;fill-rule:nonzero}
    .fil1 {fill:white;fill-rule:nonzero}
   ]]>
  </style>
 </defs>
 <g id="Layer_x0020_1">
  <metadata id="CorelCorpID_0Corel-Layer"/>
  <g id="_329224968">
   <path id="_744852400" class="fil0" d="M0.0932719 0.00787949c-0.0470849,0 -0.0853924,0.0383075 -0.0853924,0.0853924l0 2.71302c0,0.0470849 0.0383075,0.0853902 0.0853924,0.0853902l1.28444 0c0.0470849,0 0.0853924,-0.0383053 0.0853924,-0.0853902l0 -2.71302c0,-0.0470849 -0.0383075,-0.0853924 -0.0853924,-0.0853924l-1.28444 0zm1.28444 2.89168l-1.28444 0c-0.0514266,0 -0.0932719,-0.0418363 -0.0932719,-0.0932697l0 -2.71302c0,-0.0514266 0.0418453,-0.0932719 0.0932719,-0.0932719l1.28444 0c0.0514266,0 0.0932719,0.0418453 0.0932719,0.0932719l0 2.71302c0,0.0514333 -0.0418453,0.0932697 -0.0932719,0.0932697z"/>
   <path id="_746969248" class="fil1" d="M0.633464 2.7267c-0.0181063,0 -0.0328312,0.0147271 -0.0328312,0.0328312 0,0.0180996 0.0147249,0.0328223 0.0328312,0.0328223l0.278386 0c0.0181063,0 0.0328312,-0.0147227 0.0328312,-0.0328223 0,-0.0181041 -0.0147249,-0.0328312 -0.0328312,-0.0328312l-0.278386 0zm0.278386 0.073533l-0.278386 0c-0.0224481,0 -0.0407107,-0.0182537 -0.0407107,-0.0407018 0,-0.0224458 0.0182626,-0.0407107 0.0407107,-0.0407107l0.278386 0c0.0224458,0 0.0407107,0.0182649 0.0407107,0.0407107 0,0.0224481 -0.0182649,0.0407018 -0.0407107,0.0407018z"/>
   <polygon id="_325757184" class="fil2" points="1.40744,2.5085 0.0635451,2.5085 0.0635451,0.253971 0.0635451,0.253971 1.40744,0.253971 "/>
   <polygon id="_746987224" class="fil1" points="0.0635451,2.50456 1.40744,2.50456 1.40744,2.51244 0.0635451,2.51244 "/>
   <path id="_746990320" class="fil0" d="M0.0635451 1.6773l0 -0.0274353c0.254042,-0.099378 0.549101,-0.18521 0.887803,-0.235549 -0.350899,0.0774102 -0.645982,0.170311 -0.887803,0.262985z"/>
   <path id="_329222616" class="fil3" d="M0.0635451 1.68575l0 -0.00844678c0.241821,-0.0926733 0.536904,-0.185574 0.887803,-0.262985 -0.338702,0.0503389 -0.633761,0.136171 -0.887803,0.235549l0 -0.00848474c0.263425,-0.102813 0.570825,-0.191042 0.925078,-0.240396l0.00399335 -0.000560587 0.00147405 0.0126545 -0.00349976 0.000748194c-0.368482,0.0792237 -0.676504,0.175734 -0.927046,0.271921z"/>
   <path id="_329218728" class="fil0" d="M1.04245 1.44994l0.0197054 -0.0495662 -0.049928 0.0082011 -0.00657964 -0.00199221 -0.0153413 -0.0285475 0.00486215 -0.000795096 0.0159466 0.0184368 0.0515204 -0.00845348 -0.0325855 -0.036762 0.00383701 -0.000629823 0.0485254 0.0341445 0.0473529 -0.00776782c0.000489118,-7.81695e-005 0.000962602,-0.000118371 0.00143385,-0.000118371 0.00423232,0 0.00790406,0.00295481 0.00860535,0.00713129 0.00027471,0.00164603 -7.14693e-005,0.00237189 -0.000355113,0.00277167 -0.000913467,0.00127751 -0.00343499,0.00225352 -0.00749311,0.00292354l-0.051268 0.00841551 -0.0343298 0.0519693 -0.00390848 0.000638757z"/>
   <path id="_329213936" class="fil4" d="M1.02999 1.45997l0.0197054 -0.0495595 -0.0379993 0.00623123 -0.0114396 -0.00346626 -0.0221019 -0.0411283 0.0200985 -0.00330099 0.0159399 0.0184458 0.0330679 -0.00542943 -0.0325788 -0.0367687 0.0211147 -0.00345956 0.0485343 0.0341467 0.0441636 -0.00724967c0.000929101,-0.000149639 0.0018515,-0.000227808 0.00275603,-0.000227808 0.00792639,0 0.0149706,0.00571084 0.0163263,0.0137087 0.000567287,0.00335682 -8.93366e-006,0.00627143 -0.0017175,0.00865895 -0.00289897,0.00406482 -0.00827257,0.00540486 -0.0126233,0.00612179l-0.047871 0.00785492 -0.0343209 0.0519716 -0.0210544 0.00345063zm0.0321701 -0.0595965l-0.0197054 0.0495662 0.00390848 -0.000638757 0.0343298 -0.0519693 0.051268 -0.00841551c0.00405812,-0.000670025 0.00657964,-0.00164603 0.00749311,-0.00292354 0.000283644,-0.000399781 0.000629823,-0.00112564 0.000355113,-0.00277167 -0.000701292,-0.00417649 -0.00437303,-0.00713129 -0.00860535,-0.00713129 -0.000471251,0 -0.000944735,4.02015e-005 -0.00143385,0.000118371l-0.0473529 0.00776782 -0.0485254 -0.0341445 -0.00383701 0.000629823 0.0325855 0.036762 -0.0515204 0.00845348 -0.0159466 -0.0184368 -0.00486215 0.000795096 0.0153413 0.0285475 0.00657964 0.00199221 0.049928 -0.0082011z"/>
   <path id="_745895608" class="fil0" d="M1.40744 1.92629l-0.0296017 0 0 0.126393 -0.0222582 0 0 -0.32938c0,0 -0.0173023,0.00765838 -0.0173023,0 0,-0.00765838 0,-0.0421289 0,-0.0421289l-0.0346045 0 0 0.0497873 -0.0197747 0 0 0.32938 -0.0321321 0 0 -0.271927 -0.0370769 0 0 0.145541 -0.0395605 0 0 0.31788c0,0 -0.0469687,0.00766508 -0.0469687,0 0,-0.00765168 0,-0.294905 0,-0.294905l-0.0346045 0 0 -0.183832 -0.077868 0.120636 0 0.107202 -0.0575707 -0.0598086 0 0.138362 -0.00794202 0 0 -0.421289 -0.0148366 0 0 -0.1149 -0.012353 0 0 0.118728 -0.0667523 0 0 0.287244 -0.0593195 0 0 0.0536243 -0.0247261 0 0 0.0421222 -0.0296553 0 0 0.0852026 -0.00716926 0c0,0 0,-0.0508035 0,-0.0592726 0,-0.00312008 -0.00668238,-0.00393974 -0.0150823,-0.00371864l0 -0.190727 -0.0346112 0 0 0.157027 -0.0222426 0 0 0.0842668 -0.0222493 0 0 -0.268106 -0.0469665 0 0 0.245122 -0.0490056 0 0 -0.387953 -0.0163017 0 0 -0.033863 -0.0108656 0 0 -0.0338653 -0.0190131 0 0 -0.0451619 -0.0081542 0 0 -0.0959587 -0.0081475 0 0 0.0959587 -0.0081542 0 0 0.0451619 -0.0162928 0 0 0.0310355 -0.0108656 0 0 0.033872 -0.0163017 0 0 0.414893 -0.0124089 0 0 -0.219446c0,0 -0.0445008,-0.0114865 -0.0445008,0 0,0.0114887 0,0.210645 0,0.210645l-0.0148276 0 0 -0.0497873 -0.0395538 0 0 0.0574546c0,0 -0.0148276,0.0153168 -0.0148276,0 0,-0.0153257 0,-0.137882 0,-0.137882l-0.0395538 0 0 0.141703 -0.0370859 0 0 -0.172346 -0.0370792 0 0 0.0765994 -0.0173023 0 0 -0.0765994 -0.0346045 0 0 0.206816 -0.0568628 0 0 -0.122559 -0.018955 0 0 0.471085 1.34389 0 0 -0.578325z"/>
   <path id="_746986864" class="fil1" d="M0.0635451 2.50068l1.34389 0 0 0.00787949 -1.34389 0 0 -0.00787949zm1.34389 -0.570446l-0.0256619 0 0 0.126393 -0.0301377 0 0 -0.327609c-0.00472591,0.00151426 -0.0106355,0.00258406 -0.0142045,0.00026801 -0.00199444,-0.00129985 -0.00309775,-0.00341936 -0.00309775,-0.00597885l0 -0.0381892 -0.026725 0 0 0.0497873 -0.0197769 0 0 0.32938 -0.0400094 0 0 -0.271927 -0.0291997 0 0 0.145541 -0.0395605 0 0 0.317288 -0.00330769 0.00054272c-0.01263,0.00206591 -0.0427431,0.00623346 -0.0494009,0.000582921 -0.00138025,-0.00117254 -0.00213514,-0.00275603 -0.00213514,-0.00447353l0 -0.290965 -0.0346045 0 0 -0.17441 -0.0699908 0.108439 0 0.115805 -0.0575707 -0.0598086 0 0.132533 -0.0158215 0 0 -0.421289 -0.0148366 0 0 -0.1149 -0.00447576 0 0 0.118728 -0.0667501 0 0 0.287244 -0.0593195 0 0 0.0536243 -0.0247261 0 0 0.0421222 -0.0296553 0 0 0.0852026 -0.0150488 0 0 -0.0621336c-0.00108767,-0.000377447 -0.00397995,-0.00103184 -0.0110465,-0.000857631l-0.00403355 9.38034e-005 0 -0.190821 -0.026734 0 0 0.157027 -0.0222426 0 0 0.0842668 -0.0301288 0 0 -0.268106 -0.039087 0 0 0.245122 -0.0568851 0 0 -0.387953 -0.0163017 0 0 -0.033863 -0.0108656 0 0 -0.0338653 -0.0190108 0 0 -0.0451686 -0.00815643 0 -0.00026801 -0.095952 0 0.095952 -0.0081542 0 0 0.0451686 -0.0162928 0 0 0.0310355 -0.0108656 0 0 0.033872 -0.0163017 0 0 0.414893 -0.0202883 0 0 -0.220313c-0.0173648,-0.00416085 -0.0344169,-0.0055612 -0.0367017,-0.00292354l8.04029e-005 0.214435 -0.0227071 0 0 -0.0497873 -0.0316743 0 0 0.0551073 -0.00111001 0.00114128c-0.00297044,0.00306425 -0.0105038,0.00994316 -0.0165786,0.00749311 -0.00333226,-0.00134675 -0.00501848,-0.00479068 -0.00501848,-0.0102268l0 -0.133942 -0.0316743 0 0 0.141703 -0.0449653 0 0 -0.172346 -0.0291997 0 0 0.0765994 -0.0251795 0 0 -0.0765994 -0.0267273 0 0 0.206816 -0.06474 0 0 -0.122559 -0.0150175 0 0 -0.00787949 0.0228947 0 0 0.122559 0.0489855 0 0 -0.206816 0.0424818 0 0 0.0765994 0.00942501 0 0 -0.0765994 0.0449564 0 0 0.172346 0.0292064 0 0 -0.141703 0.0474333 0 0 0.141822c0,0.00248132 0.00046455,0.00317592 0.000471251,0.00318262 0.000654391,-0.000212174 0.00378341,-0.00234062 0.0064769,-0.00483758l0 -0.0597372 0.047431 0 0 0.0497873 0.00695039 0 0 -0.206707c0,-0.00243442 0.00108767,-0.00461647 0.00305755,-0.00614413 0.00865895,-0.00668908 0.0376777,8.48698e-005 0.0463679,0.00232275l0.00295481 0.000766061 0 0.218562 0.00452937 0 0 -0.414893 0.0163017 0 0 -0.033872 0.0108656 0 0 -0.0310333 0.0162928 0 0 -0.0451708 0.00815643 0 0 -0.095952 0.0160248 0 0 0.095952 0.0081542 0 0 0.0451708 0.0190131 0 0 0.033863 0.0108656 0 0 0.033863 0.0163017 0 0 0.387955 0.0411283 0 0 -0.245124 0.0548415 0 0 0.268106 0.014372 0 0 -0.0842668 0.0222426 0 0 -0.157027 0.0424907 0 0 0.190702c0.00693475,0.000118371 0.0109772,0.00115914 0.0131973,0.00333226l0.00117478 0.00154552 0 -0.0270645 0.0296575 0 0 -0.0421222 0.0247239 0 0 -0.0536243 0.0593195 0 0 -0.287244 0.0667523 0 0 -0.118728 0.0202325 0 0 0.1149 0.0148366 0 6.25356e-005 0.421289 0 -0.144194 0.057573 0.0598019 0 -0.0985829 0.0857453 -0.132846 0 0.193262 0.0346045 0 0 0.297598c0.0046723,0.00164603 0.0227719,0.000339479 0.0390892,-0.00211951l0 -0.318454 0.0395605 0 0 -0.145541 0.0449564 0 0 0.271929 0.0242527 0 0 -0.329382 0.0197747 0 0 -0.0497873 0.042484 0 0 0.0455393c0.00203241,0.000174206 0.00736804,-0.00112564 0.0117723,-0.00307318l0.00552994 -0.00244112 0 0.331486 0.0143787 0 0 -0.126396 0.0335414 0 0 0.00787949z"/>
   <polygon id="_329216352" class="fil0" points="1.40744,2.50259 0.0635451,2.50259 0.0635451,2.63346 1.40744,2.63346 "/>
   <polygon id="_329224944" class="fil1" points="1.40744,2.50653 0.0635451,2.50653 0.0635451,2.49865 1.40744,2.49865 "/>
   <path id="_329252744" class="fil1" d="M0.0609209 2.62821l1.34731 0 0 -2.37157 -1.34731 0 0 2.37157zm1.35519 0.00787949l-1.36306 0 0 -2.38733 1.36306 0 0 2.38733z"/>
   <path id="_329253200" class="fil5" d="M1.20792 0.435l-0.944853 0c-0.0331081,0 -0.0599516,-0.0268434 -0.0599516,-0.0599516l0 0c0,-0.0331081 0.0268434,-0.0599516 0.0599516,-0.0599516l0.944853 0c0.0331081,0 0.0599516,0.0268434 0.0599516,0.0599516l0 0c0,0.0331081 -0.0268434,0.0599516 -0.0599516,0.0599516z"/>
   <path id="_746987488" class="fil6" d="M0.699825 0.363473l0 0.0231493 0.282471 0 0 -0.0231493 -0.282471 0zm-0.0811355 -0.0192788l-0.099148 0c-0.0170432,0 -0.0308546,0.0138204 -0.0308546,0.0308546l0 0c0,0.0170343 0.0138114,0.0308457 0.0308546,0.0308457l0.099148 0c0.017041,0 0.0308524,-0.0138114 0.0308524,-0.0308457l0 0c0,-0.0170343 -0.0138114,-0.0308546 -0.0308524,-0.0308546z"/>
   <path id="_329227416" class="fil1" d="M1.25785 1.05709c0,-0.00999007 -0.0081006,-0.0180907 -0.0180907,-0.0180907l-0.907635 0c-0.00998113,0 -0.0180884,0.0081006 -0.0180884,0.0180907 0,0.00999007 0.0081073,0.0180907 0.0180884,0.0180907l0.907635 0c0.00999007,0 0.0180907,-0.0081006 0.0180907,-0.0180907z"/>
   <path id="_329227560" class="fil7" d="M0.25301 1.08314c-0.0143877,0 -0.0260483,-0.0116607 -0.0260483,-0.0260483 0,-0.0143877 0.0116607,-0.0260483 0.0260483,-0.0260483 0.0143877,0 0.0260483,0.0116607 0.0260483,0.0260483 0,0.0143877 -0.0116607,0.0260483 -0.0260483,0.0260483z"/>
   <path id="_329227632" class="fil7" d="M0.25301 0.984686c-0.0143877,0 -0.0260483,-0.0116629 -0.0260483,-0.0260483 0,-0.0143877 0.0116607,-0.0260483 0.0260483,-0.0260483 0.0143877,0 0.0260483,0.0116607 0.0260483,0.0260483 0,0.0143854 -0.0116607,0.0260483 -0.0260483,0.0260483z"/>
   <path id="_329227728" class="fil7" d="M0.25301 0.886228c-0.0143877,0 -0.0260483,-0.0116607 -0.0260483,-0.0260461 0,-0.0143966 0.0116607,-0.0260573 0.0260483,-0.0260573 0.0143877,0 0.0260483,0.0116607 0.0260483,0.0260573 0,0.0143854 -0.0116607,0.0260461 -0.0260483,0.0260461z"/>
   <path id="_745842184" class="fil7" d="M0.25301 0.787772c-0.0143877,0 -0.0260483,-0.0116674 -0.0260483,-0.026055 0,-0.0143877 0.0116607,-0.0260483 0.0260483,-0.0260483 0.0143877,0 0.0260483,0.0116607 0.0260483,0.0260483 0,0.0143877 -0.0116607,0.026055 -0.0260483,0.026055z"/>
   <path id="_329223792" class="fil7" d="M0.25301 0.689317c-0.0143877,0 -0.0260483,-0.0116674 -0.0260483,-0.026055 0,-0.0143877 0.0116607,-0.0260483 0.0260483,-0.0260483 0.0143877,0 0.0260483,0.0116607 0.0260483,0.0260483 0,0.0143877 -0.0116607,0.026055 -0.0260483,0.026055z"/>
   <path id="_329223816" class="fil7" d="M0.25301 0.590854c-0.0143877,0 -0.0260483,-0.0116607 -0.0260483,-0.0260483 0,-0.0143877 0.0116607,-0.0260483 0.0260483,-0.0260483 0.0143877,0 0.0260483,0.0116607 0.0260483,0.0260483 0,0.0143877 -0.0116607,0.0260483 -0.0260483,0.0260483z"/>
   <path id="_329223864" class="fil1" d="M1.25785 0.958638c0,-0.00999007 -0.0081006,-0.0180907 -0.0180907,-0.0180907l-0.907635 0c-0.00998113,0 -0.0180884,0.0081006 -0.0180884,0.0180907 0,0.00999007 0.0081073,0.0180907 0.0180884,0.0180907l0.907635 0c0.00999007,0 0.0180907,-0.0081006 0.0180907,-0.0180907z"/>
   <path id="_329223936" class="fil1" d="M1.25785 0.860182c0,-0.009999 -0.0081006,-0.0180907 -0.0180907,-0.0180907l-0.907635 0c-0.00998113,0 -0.0180884,0.00809166 -0.0180884,0.0180907 0,0.00999007 0.0081073,0.0180817 0.0180884,0.0180817l0.907635 0c0.00999007,0 0.0180907,-0.00809166 0.0180907,-0.0180817z"/>
   <path id="_329224032" class="fil1" d="M1.25785 0.761717c0,-0.00999007 -0.0081006,-0.0180817 -0.0180907,-0.0180817l-0.907635 0c-0.00998113,0 -0.0180884,0.00809166 -0.0180884,0.0180817 0,0.009999 0.0081073,0.0180907 0.0180884,0.0180907l0.907635 0c0.00999007,0 0.0180907,-0.00809166 0.0180907,-0.0180907z"/>
   <path id="_744853480" class="fil1" d="M1.25785 0.663262c0,-0.00999007 -0.0081006,-0.0180907 -0.0180907,-0.0180907l-0.907635 0c-0.00998113,0 -0.0180884,0.0081006 -0.0180884,0.0180907 0,0.00999007 0.0081073,0.0180907 0.0180884,0.0180907l0.907635 0c0.00999007,0 0.0180907,-0.0081006 0.0180907,-0.0180907z"/>
   <path id="_746969272" class="fil1" d="M1.25785 0.564806c0,-0.00999007 -0.0081006,-0.0180907 -0.0180907,-0.0180907l-0.907635 0c-0.00998113,0 -0.0180884,0.0081006 -0.0180884,0.0180907 0,0.00999007 0.0081073,0.0180907 0.0180884,0.0180907l0.907635 0c0.00999007,0 0.0180907,-0.0081006 0.0180907,-0.0180907z"/>
   <path id="_746969392" class="fil8" d="M1.81727 2.21309c-0.0270802,-0.0293739 -0.0585646,-0.0587545 -0.086661,-0.0692493 -0.0472122,-0.0176395 -0.126315,-0.146974 -0.209943,-0.201733 -0.0160962,-0.0105574 -0.0323287,-0.0183274 -0.0485835,-0.0219991 -0.100575,-0.0228411 -0.786441,-0.0307832 -0.818562,0 -0.00420105,0.00407375 -0.009865,0.0117009 -0.0165786,0.0219991 -0.0442306,0.0678936 -0.134452,0.25067 -0.16544,0.270321 0,0 -0.0089828,0.000455617 -0.0240941,0.00148745 -0.0719271,0.00505199 -0.281895,0.0234397 -0.311394,0.0684698 -0.0162235,0.0247239 -0.0243375,0.0577986 -0.0253314,0.0907883 -0.000636523,0.0203911 0.00145842,0.0407576 0.00602129,0.0591163 0.00430826,0.0172956 0.0108164,0.0328156 0.0193101,0.0448872 0.0320919,0.0456108 0.0963451,0.0381266 0.135622,0.0401032 0.0392456,0.00201007 0.303365,0.0107003 0.303365,0.0107003 0,0 0.0143006,-0.0999051 0.110641,-0.117469 0.0963763,-0.0175457 0.135653,0.117469 0.135653,0.117469l0.462851 0c0,0 0.0622363,-0.132982 0.168391,-0.11193 0.106098,0.0210544 0.114355,0.10123 0.114355,0.10123l0.310867 0c0,0 0.0208556,-0.214419 0,-0.234895 -0.0104479,-0.0102983 -0.0332667,-0.0397816 -0.0604876,-0.0692962z"/>
   <path id="_746969464" class="fil9" d="M0.705286 2.38596c-0.0630783,0 -0.114212,0.0502675 -0.114212,0.112276 0,0.0620063 0.051134,0.112283 0.114212,0.112283 0.0630783,0 0.114215,-0.0502764 0.114215,-0.112283 0,-0.0620085 -0.0511363,-0.112276 -0.114215,-0.112276z"/>
   <path id="_746969560" class="fil1" d="M0.705286 2.41929c-0.0443512,0 -0.0803091,0.035355 -0.0803091,0.078949 0,0.0436007 0.035958,0.0789468 0.0803091,0.0789468 0.0443512,0 0.0803114,-0.035346 0.0803114,-0.0789468 0,-0.043594 -0.0359602,-0.078949 -0.0803114,-0.078949z"/>
   <path id="_746969728" class="fil8" d="M0.705286 2.43333c-0.0364627,0 -0.0660332,0.0290567 -0.0660332,0.0649075 0,0.0358485 0.0295704,0.0649075 0.0660332,0.0649075 0.036465,0 0.0660265,-0.029059 0.0660265,-0.0649075 0,-0.0358508 -0.0295615,-0.0649075 -0.0660265,-0.0649075z"/>
   <path id="_746969800" class="fil9" d="M1.42243 2.38596c-0.0630783,0 -0.114212,0.0502675 -0.114212,0.112276 0,0.0620063 0.051134,0.112283 0.114212,0.112283 0.0630806,0 0.114215,-0.0502764 0.114215,-0.112283 0,-0.0620085 -0.051134,-0.112276 -0.114215,-0.112276z"/>
   <path id="_746970112" class="fil1" d="M1.42243 2.41929c-0.0443489,0 -0.0803091,0.035355 -0.0803091,0.078949 0,0.0436007 0.0359602,0.0789468 0.0803091,0.0789468 0.0443512,0 0.0803047,-0.035346 0.0803047,-0.0789468 0,-0.043594 -0.0359535,-0.078949 -0.0803047,-0.078949z"/>
   <path id="_746970448" class="fil8" d="M1.42243 2.43333c-0.0364627,0 -0.0660332,0.0290567 -0.0660332,0.0649075 0,0.0358485 0.0295704,0.0649075 0.0660332,0.0649075 0.0364739,0 0.0660354,-0.029059 0.0660354,-0.0649075 0,-0.0358508 -0.0295615,-0.0649075 -0.0660354,-0.0649075z"/>
   <path id="_746970592" class="fil10" d="M0.471503 2.21242c0,0 -0.0089895,0.000448916 -0.0240874,0.00150532l-3.79681e-005 3.79681e-005c0,0 0.102654,0.0123486 0.120502,0 0.0178383,-0.0123843 0.137406,-0.271862 0.137406,-0.271862l-0.0683492 0c-0.0442149,0.0678914 -0.134454,0.250661 -0.165434,0.270319z"/>
   <path id="_746970736" class="fil10" d="M1.73061 2.14385c-0.0472189,-0.0176417 -0.126315,-0.146974 -0.209943,-0.201749l-0.068137 0c0,0 0.128307,0.259478 0.156768,0.271862 0.0284425,0.0123486 0.192161,0 0.192161,0l-8.04029e-005 -3.79681e-005c-0.00784599,-0.000355113 0.000757128,-0.000629823 0.015893,-0.000835297 -0.0270891,-0.0293739 -0.0585802,-0.0587455 -0.086661,-0.0692403z"/>
   <polygon id="_746971000" class="fil10" points="0.624977,2.21395 1.07264,2.21395 1.07264,1.9421 0.753465,1.9421 "/>
   <polygon id="_746971168" class="fil10" points="1.09767,1.9421 1.09767,2.21395 1.5618,2.21395 1.43331,1.9421 "/>
   <path id="_746971192" class="fil10" d="M0.242602 2.37317l-0.131919 0c-0.000636523,0.0203911 0.00145842,0.0407576 0.00602129,0.0591163l0.126976 -0.00619326c0.011645,-0.000582921 0.0208087,-0.0100124 0.0208087,-0.0214922l0 -0.00992083c0,-0.0118728 -0.00980916,-0.02151 -0.0218875,-0.02151z"/>
   <polygon id="_746971312" class="fil10" points="1.05114,1.75329 1.05114,1.89968 1.16143,1.9012 1.10629,1.77211 "/>
   <polygon id="_746971408" class="fil1" points="0.757586,2.21386 0.827789,2.21395 0.987125,1.9421 0.933485,1.9421 "/>
   <polygon id="_746971696" class="fil1" points="0.843096,2.21386 0.883059,2.21395 1.04239,1.9421 1.019,1.9421 "/>
   <polygon id="_746972176" class="fil1" points="1.10814,2.21386 1.17833,2.21395 1.33767,1.9421 1.28403,1.9421 "/>
   <polygon id="_746972200" class="fil1" points="1.19366,2.21386 1.2336,2.21395 1.39294,1.9421 1.36955,1.9421 "/>
   <path id="_746972992" class="fil11" d="M1.5464 2.08603c0,0 -0.00754001,0.00938481 -0.0681839,0.0114798 0,0 -0.0711075,0.0487555 -0.0846196,0.163497 -0.0135122,0.114733 -0.09046,0.392974 -0.09046,0.392974l0.0162235 0c0,0 0.105413,-0.123347 0.127041,-0.226609 0.0216195,-0.103262 0.0593597,-0.152026 0.0755832,-0.157762 0.0162079,-0.00573541 0.0919944,0.283968 0.105507,0.384371l0.0167908 0c0,0 0.0426806,-0.120479 0.0156473,-0.232344 -0.0270243,-0.111867 0.0137735,-0.232344 -0.113529,-0.335606z"/>
   <path id="_746973184" class="fil12" d="M1.72323 2.00768c0,0 -0.0026466,-0.0025997 -0.0397637,-0.044302 -0.0371194,-0.0417046 -0.0344705,-0.0469196 -0.0668863,-0.0620018 -0.0323979,-0.0150867 -0.108106,-0.016199 -0.139921,-0.0135903 -0.0318239,0.00260863 -0.0715899,0.0286726 -0.0715899,0.0286726l0.103405 -0.0781919 -0.00817877 -0.0133871c0,0 -0.24105,0.096794 -0.233093,0.154137 0.0036494,0.026332 0.182935,0.0104233 0.182935,0.0104233 0,0 0.00438196,0.0148768 0.0089828,0.0416264 0.00560141,0.0194597 0.0148209,0.0457202 0.0201856,0.0652381 0.021644,0.028284 0.0610549,0.0134965 0.071581,0.00521502 0.00611286,-0.00480631 0.00945405,-0.0135591 0.0126925,-0.0203196 0.0080604,-0.0168221 0.0110152,-0.0392523 0.0263074,-0.0516857 0.00152096,-0.00123731 0.00311338,-0.00207261 0.00472814,-0.002593l0.00134675 -0.000984936c0.0132598,-0.00782365 0.100756,0.0703682 0.111363,0.0703682 0.0106043,0 0.176277,-0.119445 0.176277,-0.119445l-0.0118974 -0.00917264 -0.148473 0.0399938z"/>
   <polygon id="_746973304" class="fil11" points="1.47384,1.84813 1.50812,1.8683 1.53363,1.82123 1.50944,1.79258 "/>
   <polygon id="_746973496" class="fil1" points="1.48093,1.84393 1.50708,1.85931 1.52654,1.82342 1.50808,1.80156 "/>
   <path id="_746973664" class="fil13" d="M1.55295 1.76258c-0.0141197,-0.00162369 -0.0280093,0.00341936 -0.0358106,0.0184525 -0.0122503,0.0236206 -0.0151359,0.0787592 0.0160181,0.0910117 0.0591006,0.0232499 0.092555,-0.101096 0.0197925,-0.109464z"/>
   <path id="_746973688" class="fil13" d="M1.52654 1.89375c0,0 0.0110375,0.0151984 0.0309172,0l0 -0.0347385 -0.0309172 -0.00434176 0 0.0390803z"/>
   <path id="_746973832" class="fil13" d="M1.93087 1.93569c-0.00163709,-0.00275827 -0.00654614,0.00503412 -0.00654614,0.00200114 0,-0.00301734 -0.00140258,-0.00301734 -0.00653944,0.0027806 -0.00514579,0.00580018 -0.0238506,0.0133715 -0.0201074,0.00732114 0.0037432,-0.00605926 0.00326972,-0.00732114 0.00326972,-0.00732114 0,0 -0.0102826,0.0055478 -0.0173492,0.00834404 -0.00706876,0.0027806 -0.0118974,0.0188701 -0.0118974,0.0188701 0.00207931,0.0148611 0.0118974,0.00917264 0.0118974,0.00917264 0.0212107,0.00611286 0.0463367,-0.0270578 0.0463367,-0.029327 0,-0.00226915 -0.00958135,0.00655507 -0.00583815,0.00253046 0.00373427,-0.00404248 0.00840658,-0.0116071 0.00677395,-0.014372z"/>
   <path id="_746973856" class="fil9" d="M1.76727 1.81125c-0.0530034,-0.0456041 -0.0706742,-0.0564607 -0.106014,-0.0499369 -0.0353371,0.00650817 -0.0706742,-0.0282304 -0.110431,-0.0173737 -0.0397503,0.0108499 -0.0552167,0.0282304 -0.0508035,0.0651353 0.00441993,0.0369139 0.0137087,0.042522 0.0137087,0.042522 0,0 -0.00486885,-0.016467 0.0017577,-0.0338318 0,0 -0.00220661,-0.00218205 0.0132531,-0.0108566 0.0154575,-0.00869022 0.0309239,-0.0152073 0.0331305,-0.0282304 0,0 0.00662654,-0.00217535 0.00662654,0.00868352 0,0.0108566 -0.00680075,0.0387721 0.0186803,0.0573809 0,0 -0.00497828,0.0198707 -0.0306023,0.0290121 0,0 -0.00133112,0.0199958 0.000875499,0.0221711 0.00221331,0.00216641 0.0530101,0.00216641 0.0684676,0.0173715 0.0154597,0.0151917 0.0530034,-0.039087 0.0883472,-0.0152051 0.0353304,0.0238819 0.112638,0.0629689 0.172268,0.0173737 0.0596277,-0.0455974 0.0750941,-0.0607958 0.0419636,-0.0977008 -0.0331327,-0.0369206 -0.108218,0.0390803 -0.161228,-0.00651487z"/>
   <path id="_746974096" class="fil11" d="M1.90005 1.96182c0,0.0616356 0,0.123273 0,0.184927 0,0.00880189 0,0.0176105 0,0.0264191 0,0.00615976 0.00973769,0.00616869 0.00973769,0 0,-0.0616378 0,-0.123276 0,-0.18492 0,-0.00880859 0,-0.0176172 0,-0.0264258 0,-0.00615529 -0.00973769,-0.00617093 -0.00973769,0z"/>
   <path id="_746974336" class="fil11" d="M2.00764 1.96182c0,0.0616356 0,0.123273 0,0.184927 0,0.00880189 0,0.0176105 0,0.0264191 0,0.00615976 0.00973099,0.00616869 0.00973099,0 0,-0.0616378 0,-0.123276 0,-0.18492 0,-0.00880859 0,-0.0176172 0,-0.0264258 0,-0.00615529 -0.00973099,-0.00617093 -0.00973099,0z"/>
   <path id="_746974408" class="fil14" d="M2.08525 2.156l-0.252255 0c0,0 -0.0326972,0.0192163 -0.0349976,0.0537025 -0.00229372,0.0344862 0,0.404594 0,0.404594 0,0 0.0141264,0.0353929 0.0645524,0.0370613 0.043996,0.00148299 0.0864555,0.000379681 0.0965729,8.04029e-005 0.0101241,0.000299278 0.0525768,0.00140258 0.0965729,-8.04029e-005 0.0504328,-0.00166836 0.0645524,-0.0370613 0.0645524,-0.0370613 0,0 0.00230042,-0.370108 0,-0.404594 -0.00229148,-0.0344862 -0.0349976,-0.0537025 -0.0349976,-0.0537025z"/>
   <path id="_746974504" class="fil11" d="M2.06378 2.62954c-0.0149706,0 -0.0271137,0.0100995 -0.0271137,0.0225731 0,0.0124647 0.0121431,0.0225731 0.0271137,0.0225731 0.0149773,0 0.0271271,-0.0101084 0.0271271,-0.0225731 0,-0.0124736 -0.0121498,-0.0225731 -0.0271271,-0.0225731z"/>
   <path id="_746974528" class="fil9" d="M2.06378 2.64246c-0.00639873,0 -0.0115981,0.00431719 -0.0115981,0.00965059 0,0.0053334 0.00519939,0.00966175 0.0115981,0.00966175 0.00641214,0 0.0116048,-0.00432836 0.0116048,-0.00966175 0,-0.0053334 -0.00519269,-0.00965059 -0.0116048,-0.00965059z"/>
   <path id="_746974696" class="fil11" d="M1.85155 2.62954c-0.0149862,0 -0.0271271,0.0100995 -0.0271271,0.0225731 0,0.0124647 0.0121408,0.0225731 0.0271271,0.0225731 0.0149706,0 0.0271114,-0.0101084 0.0271114,-0.0225731 0,-0.0124736 -0.0121408,-0.0225731 -0.0271114,-0.0225731z"/>
   <path id="_746974768" class="fil9" d="M1.85155 2.64246c-0.00641437,0 -0.0116071,0.00431719 -0.0116071,0.00965059 0,0.0053334 0.00519269,0.00966175 0.0116071,0.00966175 0.0063965,0 0.0115892,-0.00432836 0.0115892,-0.00966175 0,-0.0053334 -0.00519269,-0.00965059 -0.0115892,-0.00965059z"/>
   <path id="_746974960" class="fil11" d="M2.07142 2.21291l-0.224597 0c-0.0107092,0 -0.0194776,0.00862098 -0.0194776,0.0191538l0 0.361434c0,0.0105261 0.00876839,0.0191381 0.0194776,0.0191381l0.224597 0c0.0107092,0 0.0194865,-0.00861205 0.0194865,-0.0191381l0 -0.361434c0,-0.0105328 -0.00877732,-0.0191538 -0.0194865,-0.0191538z"/>
   <path id="_746974984" class="fil9" d="M2.02214 1.93999l-0.126025 0c-0.00579795,0 -0.0105484,0.0046723 -0.0105484,0.0103764l0 0.00108767c0,0.00570414 0.00475047,0.0103697 0.0105484,0.0103697l0.126025 0c0.00579125,0 0.0105507,-0.0046656 0.0105507,-0.0103697l0 -0.00108767c0,-0.00570414 -0.00475941,-0.0103764 -0.0105507,-0.0103764z"/>
   <path id="_746975176" class="fil11" d="M2.09091 2.18904c-0.0768518,0 -0.153697,0 -0.230549,0 -0.0110063,0 -0.0220058,0 -0.0330121,0 -0.00312901,0 -0.00313572,0.00478398 0,0.00478398 0.0768429,0 0.153695,0 0.23054,0 0.0110063,0 0.0220058,0 0.033021,0 0.00312678,0 0.00313572,-0.00478398 0,-0.00478398z"/>
   <path id="_746975368" class="fil9" d="M1.30314 2.65398c0,0 -0.0160404,0.00716703 -0.0226044,0.0107517 -0.00657071,0.00358686 -0.0102179,0.00788842 0,0.00932228 0.0102112,0.00143609 0.0423031,0 0.0423031,0 0,0 0.00252823,-0.01219 -0.00347519,-0.0200739l-0.0162235 0z"/>
   <path id="_746975392" class="fil9" d="M1.62806 2.65398c0,0 -0.0160493,0.00716703 -0.0226111,0.0107517 -0.00656401,0.00358686 -0.0102112,0.00788842 0,0.00932228 0.0102112,0.00143609 0.0423098,0 0.0423098,0 0,0 0.00252823,-0.01219 -0.00347519,-0.0200739l-0.0162235 0z"/>
   <path id="_746975536" class="fil9" d="M1.83517 1.80493c0,0 -0.0136238,0.00190734 -0.0136238,0.00668238 0,0.00479068 0.0175077,0.00382807 0.0199332,-0.00333226 0.00243442,-0.00718713 -0.0063094,-0.00335012 -0.0063094,-0.00335012z"/>
   <path id="_746975584" class="fil9" d="M1.94596 1.88193c0,0 -0.0101084,0.00917264 -0.0073591,0.0131124 0.00276497,0.00393081 0.0166322,-0.00661984 0.0144971,-0.0138762 -0.00213514,-0.00725637 -0.007138,0.000763828 -0.007138,0.000763828z"/>
   <path id="_746975992" class="fil9" d="M1.51135 1.74942c0,0 -0.0126612,0.00515249 -0.0116048,0.00874605 0.00106311,0.00358463 0.0176641,-0.00191627 0.018419,-0.00796659 0.000750428,-0.00605032 -0.00681415,-0.000779462 -0.00681415,-0.000779462z"/>
   <path id="_746976040" class="fil15" d="M1.65625 2.59951c-0.0304459,0 -0.0552011,-0.0193123 -0.0552011,-0.0430424 0,-0.0237412 0.0247552,-0.0430513 0.0552011,-0.0430513 0.030437,0 0.0551989,0.0193101 0.0551989,0.0430513 0,0.02373 -0.0247619,0.0430424 -0.0551989,0.0430424zm0 -0.0990542c-0.0384817,0 -0.069792,0.0251259 -0.069792,0.0560118 0,0.030868 0.0313102,0.0560029 0.069792,0.0560029 0.0384728,0 0.0697831,-0.0251349 0.0697831,-0.0560029 0,-0.0308859 -0.0313102,-0.0560118 -0.0697831,-0.0560118z"/>
   <path id="_746976088" class="fil12" d="M1.77617 2.54461l-0.240097 0c-0.0192632,0 -0.0350222,0.015482 -0.0350222,0.0344236l0 0.152969c0,0.018926 0.015759,0.0344169 0.0350222,0.0344169l0.240097 0c0.0192632,0 0.0350222,-0.015491 0.0350222,-0.0344169l0 -0.152969c0,-0.0189416 -0.015759,-0.0344236 -0.0350222,-0.0344236z"/>
   <polygon id="_746976256" class="fil15" points="1.55116,2.76642 1.58617,2.76642 1.58617,2.54461 1.55116,2.54461 "/>
   <polygon id="_746976376" class="fil15" points="1.72611,2.76642 1.76112,2.76642 1.76112,2.54461 1.72611,2.54461 "/>
  </g>
 </g>
</svg>
