<?xml version="1.0" encoding="UTF-8"?>
<!DOCTYPE svg PUBLIC "-//W3C//DTD SVG 1.1//EN" "http://www.w3.org/Graphics/SVG/1.1/DTD/svg11.dtd">
<!-- Creator: CorelDRAW X5 -->
<svg xmlns="http://www.w3.org/2000/svg" xml:space="preserve" width="8.80212in" height="3.67796in" style="shape-rendering:geometricPrecision; text-rendering:geometricPrecision; image-rendering:optimizeQuality; fill-rule:evenodd; clip-rule:evenodd"
viewBox="0 0 3.31568 1.38545"
 xmlns:xlink="http://www.w3.org/1999/xlink">
 <defs>
  <style type="text/css">
   <![CDATA[
    .fil3 {fill:#344777}
    .fil17 {fill:#354C87}
    .fil14 {fill:#572F2E}
    .fil11 {fill:#662D2E}
    .fil18 {fill:#A2C1DE}
    .fil9 {fill:#A5D09C}
    .fil8 {fill:#A73436}
    .fil15 {fill:#A7653A}
    .fil10 {fill:#ACC7DE}
    .fil13 {fill:#C4DAEC}
    .fil7 {fill:#C94B41}
    .fil1 {fill:#CBDFF3}
    .fil4 {fill:#CDE0F0}
    .fil2 {fill:#D0E4F5}
    .fil21 {fill:#D38951}
    .fil6 {fill:#D46A39}
    .fil20 {fill:#D5E7F7}
    .fil12 {fill:#E68637}
    .fil16 {fill:#E9F0F6}
    .fil5 {fill:#EB9345}
    .fil19 {fill:#EC8436}
    .fil0 {fill:#F79746}
   ]]>
  </style>
 </defs>
 <g id="Layer_x0020_1">
  <metadata id="CorelCorpID_0Corel-Layer"/>
  <g id="_327406368">
   <path id="_746987824" class="fil0" d="M1.44222 1.31042c-0.00660099,-0.0291105 0.0134615,-0.0521272 0.0354297,-0.0568788 0.0646959,-0.0139924 0.0795144,0.0811353 0.020276,0.092571 -0.0282755,0.00545757 -0.0507168,-0.0136899 -0.0557057,-0.0356922zm-0.0564517 -0.487405c0.0058565,-0.00636667 0.162199,-0.0862637 0.191906,-0.102079 0.0171913,-0.00915329 0.0484685,-0.0282414 0.0652298,-0.0337198 0.00418067,0.00920668 0.0559727,0.0926644 0.0658378,0.108632l0.0500747 0.0820044c0.00745225,0.0121119 0.0083747,0.0171824 0.0209197,0.0232139l0.000295124 0.320895 -0.601654 0.000280294c-0.00271247,-0.0125035 -0.000590248,-0.124025 -0.000608044,-0.146223 -4.00419e-005,-0.0489876 -4.4491e-005,-0.0979767 -4.4491e-005,-0.146966 0.000673298,-0.00264573 0.0456092,-0.0228714 0.0494295,-0.0248408 0.0196991,-0.0101573 0.14093,-0.0744172 0.149902,-0.07636 0.00465673,0.0121149 0.131636,0.217276 0.147718,0.243187 0.0123151,0.01984 0.0150765,0.0324621 0.0264559,0.0308708 0.0015468,-0.0104257 -0.0318319,-0.0597396 -0.0386375,-0.0708001 -0.0105281,-0.0171098 -0.122884,-0.198744 -0.126825,-0.208095zm-0.207853 -0.515279c0.0086802,0.00940392 0.0245279,0.0391699 0.0325897,0.0526225 0.01062,0.0177193 0.0209301,0.0349522 0.0313499,0.0523556 0.0212267,0.0354579 0.0416065,0.0694342 0.062716,0.104705 0.0294605,0.0492278 0.0556257,0.0570894 0.107019,0.029938 0.0187025,-0.00987998 0.0366043,-0.0193892 0.0543488,-0.0293596 0.0193729,-0.0108884 0.0356685,-0.0249372 0.0612805,-0.0152782 0.00546053,-0.00457813 0.0107446,-0.0124338 0.0180189,-0.0123047 -0.00108706,0.00785563 -0.00806622,0.00989481 -0.0129098,0.0163445 0.00683531,0.0127363 0.0158329,0.025216 0.023518,0.0383483 0.0106215,0.0181479 0.0642881,0.102006 0.0673105,0.113029 -0.0130344,0.0039686 -0.0434188,0.0215945 -0.0569752,0.0289993 -0.0179373,0.00979544 -0.0367422,0.0199913 -0.0547477,0.0289444 -0.0715134,0.0355617 -0.150894,0.0814171 -0.221942,0.116592 -0.0178854,0.0088552 -0.0364915,0.019585 -0.0551259,0.0285632 -0.0126874,0.00611307 -0.0442893,0.0246436 -0.0566667,0.0274465l0.000216523 -0.580946zm0.132849 0.150654c0.00127393,-0.00110931 0.00145486,-0.00127986 0.00351627,-0.00264573l0.0109329 -0.00596921c0.0312757,-0.0169837 0.200755,-0.113909 0.207585,-0.116039 0.0407671,0.0398165 0.06753,0.0248023 0.0934697,0.0238249l0.0255379 0.0447713c0.00648234,-0.00280145 0.00841177,-0.00667514 0.0164943,-0.00703403 -0.00114787,0.00730246 -0.00811516,0.00938761 -0.0131693,0.0119666 0.0058654,0.0221447 0.0315086,0.0572867 0.0394902,0.120095 0.00292603,0.0230271 0.00215188,0.0479154 -0.00591582,0.0682937 -0.00689611,0.0174197 -0.0209108,0.0373398 -0.0349551,0.0429828 -0.00822491,-0.0160079 -0.0212371,-0.0352502 -0.0307611,-0.0509556 -0.0102018,-0.016828 -0.0556405,-0.0966538 -0.0662961,-0.103047 -0.00709335,-0.00425483 -0.0158729,-0.0251671 -0.0537125,-0.0211229 -0.0213246,0.00227794 -0.08772,0.0420322 -0.108832,0.0534174 -0.0241216,0.0130092 -0.038464,0.0175754 -0.0536221,-0.00761835 -0.00847406,-0.0140844 -0.0239288,-0.0367362 -0.0297615,-0.05092zm0.274858 -0.229025c0.0301783,-0.0077014 0.0526655,0.0136187 0.058396,0.0358153 0.0075442,0.0292276 -0.0122825,0.0535509 -0.0345339,0.0596818 -0.0619908,0.0170816 -0.0915077,-0.0782375 -0.023862,-0.095497zm0.194095 -0.0493109l-4.1525e-005 0.661875c-0.00230908,-0.00164469 -0.104474,-0.16489 -0.105551,-0.173322 0.0177549,-0.014378 0.029419,-0.0245828 0.0410801,-0.0463552 0.0326119,-0.0608815 0.00950032,-0.145882 -0.017224,-0.204462 -0.0184934,-0.0405387 -0.00980879,-0.0233266 -0.0215025,-0.026616 0.00190125,-0.00935053 0.00132138,-0.000523511 0.00458406,-0.00901685l-0.0254726 -0.0422724c0.00305208,-0.00695988 0.0090035,-0.0121505 0.0137848,-0.0202123 0.0202998,-0.0342388 0.00848296,-0.0582447 0.00313069,-0.0806385l0.107212 -0.0589803zm-0.601769 -0.0695261l0.60179 0.000514613 4.59741e-005 0.0534159c-0.00117011,0.00591138 -0.106202,0.0629177 -0.113083,0.0650503 -0.0129929,-0.0114861 -0.0186002,-0.0253021 -0.0465094,-0.0333342 -0.0267376,-0.00769547 -0.0431044,-0.00225718 -0.0650756,0.00664251 -0.00498448,-0.0039775 -0.0182206,-0.0253139 -0.022904,-0.0322056 -0.0110175,-0.0162155 -0.0157528,-0.0309583 -0.0265434,-0.0277698 -0.00195167,0.0114194 0.0309064,0.0477226 0.0393256,0.0662649 -0.00488215,0.00639336 -0.010319,0.0098429 -0.0158833,0.0167746 -0.022858,0.0284624 -0.0161354,0.0514939 -0.0146361,0.0762413 -0.0127645,0.010399 -0.210982,0.121971 -0.223756,0.124909 -0.00492367,-0.0113378 -0.0711842,-0.119991 -0.0831908,-0.139984l-0.0211762 -0.0346214c-0.00530926,-0.00609082 -0.00633107,-0.00263535 -0.00871283,-0.009834l0.000308471 -0.132064zm-0.0310948 1.26506l0.665495 -0.000133473c0.0174612,-0.00987701 0.0291238,-0.011624 0.0291624,-0.04454 8.7499e-005,-0.073207 -0.00148007,-0.152401 8.15669e-005,-0.224156l-2.81777e-005 -0.675174c0.00119088,-0.124299 -0.000130507,-0.250326 4.1525e-005,-0.375028 3.85589e-005,-0.0279685 -0.00204214,-0.0429294 -0.0226207,-0.0519196 -0.019189,-0.00838063 -0.737012,-0.00316776 -0.739764,-0.00158536l0.0633938 0.000587282c-0.0268919,0.0110382 -0.0250989,0.0317963 -0.0250989,0.064079l9.34312e-005 1.24828c-7.41517e-006,0.021243 -0.00286226,0.039158 0.0152011,0.052231 0.0059618,0.00431415 0.00967828,0.0047902 0.0140429,0.00735882z"/>
   <path id="_329261264" class="fil1" d="M1.24082 1.1832c-0.00765097,-0.00489846 -0.0214936,-0.0263787 -0.0262364,-0.0382964 -0.0194144,-0.0487815 0.0679467,-0.0510876 0.052234,-0.00210739 -0.00358005,0.0111613 -0.0189814,0.0340104 -0.0259976,0.0404038zm0.144953 -0.360185c0.00394042,0.00935053 0.116297,0.190985 0.126825,0.208095 0.00680565,0.0110605 0.0401843,0.0603743 0.0386375,0.0708001 -0.0113793,0.0015913 -0.0141407,-0.0110308 -0.0264559,-0.0308708 -0.016082,-0.0259101 -0.143061,-0.231072 -0.147718,-0.243187 -0.00897236,0.00194278 -0.130203,0.0662027 -0.149902,0.07636 -0.0038203,0.00196947 -0.0487562,0.0221951 -0.0494295,0.0248408 0,0.0489891 4.4491e-006,0.0979782 4.4491e-005,0.146966 1.77964e-005,0.0221981 -0.00210443,0.133719 0.000608044,0.146223l0.601654 -0.000280294 -0.000295124 -0.320895c-0.012545,-0.0060315 -0.0134674,-0.011102 -0.0209197,-0.0232139l-0.0500747 -0.0820044c-0.00986515,-0.0159678 -0.0616572,-0.0994256 -0.0658378,-0.108632 -0.0167613,0.00547833 -0.0480385,0.0245665 -0.0652298,0.0337198 -0.0297067,0.0158151 -0.18605,0.0957121 -0.191906,0.102079z"/>
   <path id="_329264264" class="fil2" d="M0.279814 1.10735c0.0303028,-0.00557028 0.0625366,-0.0140948 0.0941163,-0.0202049 0.0324399,-0.00627472 0.0650325,-0.0119295 0.0981472,-0.0171854 0.0392411,-0.00622874 0.0335655,-0.00898571 0.0745863,-0.0390587 0.0226519,-0.0166055 0.0442389,-0.0316168 0.0669382,-0.0483721 0.0215426,-0.0159041 0.0441514,-0.0320662 0.0668463,-0.0466073 0.0236277,-0.0151388 0.0576841,-0.0208574 0.0896213,-0.0256224 0.0336693,-0.00502304 0.0680238,-0.00827088 0.102463,-0.0108128 0.0280531,-0.00207032 0.0851988,-0.0080425 0.110652,-0.00507049 0.00333831,-0.0020451 0.0105726,-0.00126948 0.0163356,-0.00152308l-0.000234319 -0.159465 -0.152984 -0.000358894 -0.000271395 -0.0216701c0.00507643,-0.0021415 0.00826643,-0.00508384 0.00915477,-0.010617 0.000218006,-0.00135698 0.000524994,-0.00157795 0.000651052,-0.00239658 -0.00778296,-0.00256417 -0.00289637,-0.00239065 -0.00964121,-1.03812e-005l-0.00054724 -0.0908003c-0.00733361,0.00503342 -0.0201826,0.0293893 -0.0260421,0.0378025 -0.0219949,0.0315797 -0.041608,0.0602483 -0.0657889,0.0904592 -0.00436605,0.0054546 -0.00770881,0.0107031 -0.0132761,0.016211 -0.00331458,-0.00167286 -6.37705e-005,0.000738551 -0.00405907,-0.00312772 -0.000520545,-0.000502749 -0.00264425,-0.00302687 -0.00340653,-0.00398343l-0.0194856 -0.0251997c-0.00884778,-0.0117086 -0.0161769,-0.0214847 -0.0245057,-0.0331577 -0.0420218,-0.0588898 -0.116435,-0.163463 -0.114308,-0.238594 -0.00471753,0.00778 -0.0023254,0.00720013 -0.00346585,0.015999 -0.00586688,0 -0.0174479,-0.00131545 -0.0211881,0.00327602 -0.00578383,0.0117931 -0.000186862,0.170427 -0.0020896,0.200487l-0.08387 -0.000134956 -5.19062e-005 -0.124395c-0.0168399,0.0050616 -0.076925,0.0805258 -0.0912155,0.10175 -0.0133043,0.019757 -0.0245249,0.0378144 -0.0365049,0.0602008 -0.00371204,0.00693912 -0.00979396,0.0180886 -0.0119399,0.0254459 -0.00441203,0.015127 -0.00280442,0.00538193 -0.00789716,0.0160731 -0.0431088,0.0904829 -0.0528895,0.216901 -0.0403029,0.319196 0.00157498,0.0128075 0.00764208,0.0301486 0.00356373,0.0414671z"/>
   <path id="_329264840" class="fil3" d="M2.61174 1.37512c0.00414805,-0.00772661 0.00476351,-0.0133696 0.00462707,-0.0237716 -0.000387072,-0.0294753 -0.00221862,-0.0137373 0.00324636,-0.021639 0.00408131,-0.00590099 0.00961896,-0.0313929 0.0117605,-0.0402377 0.00682789,-0.0281791 0.0129899,-0.0563731 0.0183526,-0.0858469 0.015732,-0.0864624 0.0123463,-0.112773 0.0208678,-0.189607l0.00684865 0.0109537c0.00191608,0.00427411 0.00330123,0.00726539 0.00525884,0.0114475 0.00377136,0.00806029 0.00707704,0.0146746 0.0110397,0.0224561 0.0410059,0.0804887 0.0739337,0.138069 0.11916,0.215629 0.00869058,0.0149015 0.0142683,0.0189917 0.0148392,0.0283185 0.00260124,0.04248 -0.00339615,0.0496342 -0.0308649,0.06084 -0.00271395,0.0108232 -0.000182413,0.0109018 -0.00500969,0.0117872l-0.180126 -0.000329234zm-0.0959538 -0.659857c0.000658467,0.0246584 0.00434381,0.052888 0.00629252,0.0779424l0.0180826 0.229511c0.00770585,0.0902679 0.0110975,0.180801 0.0193002,0.268929 0.00181227,0.0194782 -0.000400419,0.0211496 0.00735733,0.0336604 -0.00608044,0.0148704 -0.0158388,0.0220067 -0.0324325,0.0288732 -0.0258878,0.010712 -0.0250633,0.000511647 -0.0416673,0.017746 -0.00212815,0.00284891 -0.000912066,0.00398343 -0.0132035,0.00394635l-0.197227 -0.000370759c-0.0681276,0 -0.141754,0.00268726 -0.209181,-2.96607e-005l-0.260756 -1.03812e-005 -0.665495 0.000133473 -0.0717759 -0.00028326 -0.243609 -8.4533e-005c-0.0104687,0.00237286 -0.0841726,0.0019146 -0.0952894,-0.000216523l-0.30425 -5.04232e-005c-0.0115603,0.00311437 -0.0685666,0.00312624 -0.080032,-3.85589e-005 -0.026097,0.00251523 -0.062148,0.000502749 -0.0893202,0.000502749 -0.0443101,0 -0.248404,-0.00268874 -0.26258,0.00113749 0.000524994,0.0077889 -0.00150825,0.00679971 0.00584464,0.00822194l3.2677 -0.000126058c0.0273739,0 0.0412654,0.00427411 0.04213,-0.0069317 -0.00806622,-0.00499783 -0.151805,-0.0033309 -0.17331,-0.00219044l-0.178026 6.52535e-005 -0.116911 -0.000458258c0.024479,-0.0196013 0.00341543,-0.0200981 0.0311778,-0.0505507 0.0211095,-0.0231561 0.00387665,-0.0358613 -0.0100861,-0.0513886 0.00542642,-0.0155778 -0.00774737,-0.0845493 -0.0110486,-0.104687 -0.00576307,-0.0351642 -0.0120852,-0.0685637 -0.0202093,-0.102656 -0.0309331,-0.129823 -0.0613472,-0.122309 -0.0722787,-0.17286 0.0364812,-0.00299573 0.0732144,-0.00941134 0.109968,-0.0145901 0.0180752,-0.00254785 0.0359977,-0.00519952 0.05407,-0.00777258 0.0523645,-0.00745373 0.0497632,-0.0288539 0.0430451,-0.0735466 -0.00203472,-0.0135416 -0.00415695,-0.0410637 -0.00887893,-0.0524193 -0.0159367,-0.0383261 -0.0643548,-0.0165492 -0.0950714,-0.0157113 -0.00659802,-0.0141096 0.000535375,-0.0258092 -0.0214447,-0.0247355 -0.00341246,0.00245442 -0.0018182,0.000995116 -0.0030684,0.00531223l0.0127615 0.00447432 0.00214002 0.0168858 -0.0554803 0.00734992c-0.0144863,-0.0298668 0.0260569,-0.0160375 0.0106749,-0.0261548 -0.00500524,-0.00329234 -0.0013199,-0.00149045 -0.00761687,-0.00197095 -0.0219934,0.00452029 -0.0109567,0.0136157 -0.0133488,0.0298965l-0.0620813 0.010006 -0.00613976 -0.0614317c-0.0396059,0.00997341 -0.0622578,0.0371129 -0.15149,0.0311897 -0.0177845,-0.0011805 -0.0401072,-0.00515503 -0.0572362,-0.00451881z"/>
   <path id="_329264216" class="fil1" d="M1.8416 1.10676l0.00691836 0.00699251c0.0021326,0.00260124 0.00431118,0.005201 0.00664993,0.00816262 0.0137863,0.0174568 0.0223345,0.0351776 0.034052,0.0523511 0.00188049,-0.0366502 -0.00116567,-0.0715965 0.00975095,-0.10584 0.0139687,-0.0438148 0.0529859,-0.0487147 0.0519433,-0.00728615 -0.000786008,0.0312001 -0.0264128,0.101987 -0.0410445,0.131707 -0.00493999,0.0100372 -0.00501711,0.0110723 0.00181079,0.0194826 0.00528702,0.00651349 0.00763021,0.0109982 0.0135371,0.0156905 0.0021682,-0.00255379 0.046809,-0.0807171 0.0687416,-0.109249 0.023868,-0.0310488 0.0338251,-0.0452474 0.0597722,-0.0741977 0.00736327,-0.00821453 0.0163445,-0.0140814 0.0222173,-0.0229336 -0.00247815,-0.00321077 -0.000349996,0.00158981 -0.00159575,-0.00377729 -0.00126355,-0.00543977 9.63972e-005,-0.0600095 9.04651e-005,-0.0683486 -1.92794e-005,-0.0249817 -0.000538342,-0.0493257 -4.59741e-005,-0.0744127 0.000867575,-0.04423 0.00199913,-0.106215 -0.00165062,-0.147136 -0.00209256,-0.0234453 0.000691094,-0.050352 0.000753382,-0.0742422 6.37705e-005,-0.0248482 -0.0024737,-0.0492812 -0.000511647,-0.0744127 0.00190125,-0.0243144 -0.000606561,-0.0498181 -0.000619908,-0.0744142 -1.03812e-005,-0.0184994 0.00369127,-0.0564829 -4.4491e-005,-0.0721704l-0.230753 -0.00113897 2.81777e-005 0.675174z"/>
   <path id="_329264504" class="fil4" d="M1.44494 0.661186c-0.00745521,-0.0106645 -0.0192958,-0.0243084 -0.0250054,-0.0399455 -0.00712153,-0.0195019 0.00840881,-0.03824 0.0273234,-0.0374792 0.0188538,0.000757831 0.0323702,0.0192617 0.0248838,0.0387858 -0.00259086,0.00675374 -0.0081033,0.0148096 -0.0116685,0.0201292 -0.00465969,0.0069495 -0.00892638,0.0147369 -0.0155333,0.0185098zm-0.267238 0.227497c0.0123774,-0.00280294 0.0439794,-0.0213335 0.0566667,-0.0274465 0.0186343,-0.00897829 0.0372405,-0.019708 0.0551259,-0.0285632 0.0710477,-0.0351746 0.150429,-0.08103 0.221942,-0.116592 0.0180055,-0.00895308 0.0368104,-0.0191489 0.0547477,-0.0289444 0.0135564,-0.00740479 0.0439408,-0.0250307 0.0569752,-0.0289993 -0.00302242,-0.0110234 -0.056689,-0.0948816 -0.0673105,-0.113029 -0.00768508,-0.0131323 -0.0166827,-0.025612 -0.023518,-0.0383483 0.00484359,-0.00644972 0.0118228,-0.00848889 0.0129098,-0.0163445 -0.00727428,-0.000129024 -0.0125583,0.00772661 -0.0180189,0.0123047 -0.025612,-0.009659 -0.0419076,0.00438978 -0.0612805,0.0152782 -0.0177445,0.00997044 -0.0356462,0.0194797 -0.0543488,0.0293596 -0.0513931,0.0271514 -0.0775583,0.0192898 -0.107019,-0.029938 -0.0211095,-0.035271 -0.0414894,-0.0692473 -0.062716,-0.104705 -0.0104198,-0.0174034 -0.0207299,-0.0346363 -0.0313499,-0.0523556 -0.00806178,-0.0134526 -0.0239095,-0.0432186 -0.0325897,-0.0526225l-0.000216523 0.580946z"/>
   <path id="_329264312" class="fil5" d="M2.59441 0.28711c-0.0227394,0.0110872 -0.040119,0.0314314 -0.0537155,0.053975 -0.0184371,0.0305653 -0.0138604,0.0531638 -0.0242476,0.0838122l-0.00747301 0.132662c-0.000751898,0.00222307 0.00036631,-0.000477537 -0.00187752,0.00370314l-0.00162541 0.00253747c0.00689611,0.00432749 0.00334128,-0.00723721 0.00482431,0.00980582l-0.00105444 0.109887c0.000287709,0.0218762 -0.00252709,0.0294961 0.00654611,0.0317696 0.017129,-0.000636222 0.0394517,0.00333831 0.0572362,0.00451881 0.0892327,0.00592324 0.111885,-0.0212163 0.15149,-0.0311897 0.00872024,-0.0137848 0.00603447,-0.00488363 0.00442982,-0.0386078 -0.000740034,-0.01552 -0.00218599,-0.0309509 -0.00263387,-0.0465361 -0.000872024,-0.0303533 -0.00192646,-0.0612152 0.000250633,-0.0915625 0.00342136,0.00253006 0.00114194,0.000643637 0.00418364,0.00391818 0.00099215,0.00106927 0.00226014,0.00266798 0.00341098,0.00409021 0.0200655,0.0247682 0.0204792,0.0370343 0.032431,0.0734903 0.00514465,0.0156979 0.010267,0.0307211 0.0153123,0.046244 0.0157454,0.0484493 0.00745373,0.0282889 0.0249343,0.0357041 0.0034792,0.0128727 -0.00454995,0.0179714 0.00286226,0.0326134l-0.00361119 0.00217561c0.00629696,0.000480503 0.00261162,-0.00132138 0.00761687,0.00197095 0.015382,0.0101173 -0.0251612,-0.00371204 -0.0106749,0.0261548l0.0554803 -0.00734992 -0.00214002 -0.0168858 -0.0127615 -0.00447432c0.0012502,-0.00431711 -0.000344064,-0.00285781 0.0030684,-0.00531223 -0.00620947,-0.00659505 0.00503787,-0.0251107 -0.010445,-0.0354252 0.00845033,-0.0179299 -0.00822639,-0.103012 -0.0135624,-0.1258 -0.011667,-0.0498329 -0.0709884,-0.140998 -0.0984809,-0.188061 -0.0183095,-0.0313454 -0.00996451,-0.0227438 -0.0216568,-0.0490291 -0.00688276,-0.0154755 -0.0176007,-0.0316153 -0.0297067,-0.0406055l-0.035271 0.016435c-0.00948549,0.0044491 -0.020497,0.00856304 -0.0317251,0.00865647 -0.00311437,2.66946e-005 -0.00417919,-7.41517e-006 -0.0070889,-0.000877956 -0.00448915,-0.00134066 -0.00160316,-5.48723e-005 -0.00432601,-0.00240696z"/>
   <path id="_329264456" class="fil2" d="M1.17764 0.242593c0.00238175,0.00719865 0.00340356,0.00374318 0.00871283,0.009834l0.0211762 0.0346214c0.0120066,0.0199928 0.0782671,0.128646 0.0831908,0.139984 0.0127734,-0.00293789 0.210991,-0.11451 0.223756,-0.124909 -0.00149935,-0.0247474 -0.00822194,-0.0477789 0.0146361,-0.0762413 0.00556435,-0.0069317 0.0110011,-0.0103812 0.0158833,-0.0167746 -0.00841919,-0.0185424 -0.0412773,-0.0548456 -0.0393256,-0.0662649 0.0107906,-0.00318852 0.0155259,0.0115543 0.0265434,0.0277698 0.00468342,0.00689166 0.0179195,0.0282281 0.022904,0.0322056 0.0219712,-0.00889969 0.0383379,-0.014338 0.0650756,-0.00664251 0.0279092,0.00803211 0.0335166,0.0218481 0.0465094,0.0333342 0.00688128,-0.0021326 0.111913,-0.059139 0.113083,-0.0650503l-4.59741e-005 -0.0534159 -0.60179 -0.000514613 -0.000308471 0.132064z"/>
   <path id="_329265320" class="fil6" d="M0.999521 0.892891c-0.00576307,0.000253599 -0.0129973,-0.000522028 -0.0163356,0.00152308 0.0154992,0.00379064 0.0457205,-0.00188642 0.064159,-0.00105295l-2.66946e-005 0.00865351c0.000243218,0.00975837 0.00166841,0.0241097 -0.00206142,0.0305357 0.000262497,0.00041525 0.000524994,0.000612493 0.000593214,0.00134808 0.00295865,0.0319653 0.0027184,0.0933555 0.00107668,0.122794l1.92794e-005 0.244739c0.000824567,0.0136617 -0.00149786,0.036493 0.0021593,0.0483677 0.00493554,0.0160272 0.0132865,0.0180515 0.0259768,0.0255112l0.0717759 0.00028326c-0.00436457,-0.00256862 -0.00808105,-0.00304467 -0.0140429,-0.00735882 -0.0180634,-0.0130729 -0.0152085,-0.030988 -0.0152011,-0.052231l-9.34312e-005 -1.24828c0,-0.0322827 -0.00179299,-0.0530407 0.0250989,-0.064079l-0.0633938 -0.000587282c-0.0114164,-0.000324785 -0.0204125,0.00675077 -0.0257336,0.0149445 -0.00627472,0.00966049 -0.00639336,0.021544 -0.00635184,0.034838l-8.89821e-005 0.528334c-4.4491e-006,0.0309242 -0.00296755,0.0249046 0.00480948,0.0334854 -0.00781263,0.00643934 -0.00483024,0.00478724 -0.00481096,0.029766 5.33892e-005,0.0683812 0.00294531,0.191675 -0.000177964,0.247137l-0.0473503 0.0013288z"/>
   <path id="_329265104" class="fil7" d="M0.177657 1.2081c-0.00242328,-0.00967383 -0.00193833,-0.0240578 0.00270061,-0.0320943 0.00649124,-0.0112414 0.0436887,-0.00690204 0.0655308,-0.00710522 0.0142238,-0.00013199 0.0201797,0.00067923 0.0235714,0.0136958 0.00250929,0.00963083 0.00204659,0.0239999 -0.00231502,0.0319312 -0.00568595,0.0103412 -0.017218,0.00742555 -0.0306009,0.00739589 -0.0320736,-6.82196e-005 -0.0540729,0.00539231 -0.0588869,-0.0138234zm0.338086 -0.00372093c-0.00550354,0.017571 -0.0189739,0.017614 -0.03929,0.0175487 -0.0184845,-5.78383e-005 -0.0997889,0.00129321 -0.111282,-0.00119829 -0.0127363,-0.00276141 -0.0226593,-0.0181879 -0.0169199,-0.0350782 0.00542642,-0.0159723 0.0200536,-0.0165151 0.0389326,-0.0166812 0.0154858,-0.000136439 0.102774,-0.00107372 0.111048,0.00065995 0.0140265,0.00293789 0.0223315,0.019364 0.0175117,0.034749zm0.0295821 -0.152171c0.0076747,-0.0106497 0.10817,-0.0849304 0.126702,-0.0987048 0.0181701,-0.013509 0.0235343,-0.0183303 0.0511944,-0.0233355 0.0827771,-0.0149786 0.194442,-0.0210576 0.279764,-0.0177267 -0.00444762,0.00585502 -0.0124026,0.0107802 -0.0179165,0.0156475l-0.0526477 0.0478012c-0.0299632,0.0286582 -0.037939,0.0408027 -0.0635436,0.0710418l-0.323552 0.00527664zm-0.265511 0.0551363c-0.0418883,0.0144715 -0.0949572,0.0196977 -0.111518,0.0548204 -0.0176288,0.0373858 -0.0010752,0.103695 0.0130181,0.138674l0.127363 0.00049385 0.166656 0.000139405 0.0900721 -0.000262497c-0.0115172,-0.022769 -0.0210932,-0.0669145 -0.0215337,-0.0949276 -0.000665882,-0.0423555 0.0113437,-0.0601356 0.0414004,-0.0734888 0.0482238,-0.0214254 0.130486,-0.0341765 0.187788,-0.0427307 0.0146257,-0.00218303 0.0958011,-0.010884 0.10053,-0.014952 0.00107965,-0.00092838 0.010092,-0.0133251 0.0120675,-0.0157928 0.0318378,-0.0397794 0.125733,-0.15171 0.16166,-0.157307l2.66946e-005 -0.00865351c-0.0184386,-0.000833465 -0.0486598,0.00484359 -0.064159,0.00105295 -0.0254533,-0.002972 -0.0825991,0.00300018 -0.110652,0.00507049 -0.034439,0.00254192 -0.0687935,0.00578977 -0.102463,0.0108128 -0.0319371,0.00476499 -0.0659936,0.0104836 -0.0896213,0.0256224 -0.0226949,0.0145412 -0.0453037,0.0307033 -0.0668463,0.0466073 -0.0226993,0.0167553 -0.0442864,0.0317666 -0.0669382,0.0483721 -0.0410207,0.030073 -0.0353452,0.0328299 -0.0745863,0.0390587 -0.0331147,0.00525587 -0.0657073,0.0109107 -0.0981472,0.0171854 -0.0315797,0.0061101 -0.0638135,0.0146346 -0.0941163,0.0202049z"/>
   <path id="_329265224" class="fil4" d="M2.08852 1.21122l0.0267999 -0.00207625c0.0247578,0.0446052 -0.0513886,0.0633078 -0.086016,0.076403 0.00288154,0.00630586 0.0159575,0.0176956 0.0262705,0.0395095 0.00779186,0.0164854 0.0108944,0.0319194 0.0175384,0.0504128 0.0674262,0.00271692 0.141053,2.96607e-005 0.209181,2.96607e-005l0.197227 0.000370759c0.0122914,3.70759e-005 0.0110753,-0.00109745 0.0132035,-0.00394635l-0.0764089 0.000476054 0.00179595 -0.253762c-0.0149253,-0.00323005 -0.308614,-0.00125168 -0.330856,-0.00110783l0.00126503 0.0936907z"/>
   <path id="_329265584" class="fil7" d="M0.813952 0.435296c0.0117293,0.0326609 -0.00748636,0.0684242 -0.0245368,0.0812955 -0.0193862,0.0146361 -0.0594875,0.0278277 -0.0842052,0.00885816 -0.0188597,-0.00594845 -0.0375252,-0.0320024 -0.0415858,-0.057122 -0.00492367,-0.030463 0.010709,-0.05765 0.0260243,-0.070152 0.0456226,-0.0372479 0.110593,-0.0132257 0.124304,0.0371204zm-0.239175 0.0126874c-0.00212667,0.0751305 0.0722861,0.179704 0.114308,0.238594 0.00832872,0.011673 0.0156579,0.0214491 0.0245057,0.0331577l0.0194856 0.0251997c0.00076228,0.000956557 0.00288599,0.00348068 0.00340653,0.00398343 0.00399529,0.00386627 0.000744483,0.00145486 0.00405907,0.00312772 0.00556731,-0.00550799 0.00891007,-0.0107564 0.0132761,-0.016211 0.0241809,-0.0302109 0.043794,-0.0588794 0.0657889,-0.0904592 0.00585947,-0.00841325 0.0187085,-0.0327691 0.0260421,-0.0378025 0.000735585,-0.00517431 0.0336767,-0.0629518 0.0370373,-0.0702736 0.0109448,-0.0238472 0.023736,-0.0535524 0.0228209,-0.0845315 -0.00192201,-0.06508 -0.0402555,-0.111469 -0.07959,-0.135585 -0.0977335,-0.0599176 -0.240308,-0.0029809 -0.25114,0.130801z"/>
   <path id="_329265464" class="fil8" d="M0.565405 1.30121l0.117003 0.000304022 0.0316331 -0.000662916c-5.93214e-005,-0.0257944 -0.00383809,-0.0396311 0.00139405,-0.0672868 0.00918592,-0.0485723 0.0434218,-0.108345 0.103224,-0.10853 0.0834237,-0.000258048 0.120769,0.11682 0.103639,0.176085l0.124648 0.000308471 -1.92794e-005 -0.244739 -0.121966 0.00760797c0.0172521,-0.0349433 0.0901285,-0.114088 0.120296,-0.13175 0.00372983,-0.00642599 0.00230464,-0.0207773 0.00206142,-0.0305357 -0.0359265,0.00559697 -0.129822,0.117528 -0.16166,0.157307 -0.0019754,0.00246777 -0.0109878,0.0148645 -0.0120675,0.0157928 -0.0047294,0.00406796 -0.0859048,0.0127689 -0.10053,0.014952 -0.0573015,0.00855414 -0.139564,0.0213053 -0.187788,0.0427307 -0.0300567,0.0133532 -0.0420663,0.0311333 -0.0414004,0.0734888 0.000440461,0.028013 0.0100164,0.0721585 0.0215337,0.0949276z"/>
   <path id="_329264912" class="fil9" d="M2.07595 1.02164c-0.00587282,0.00885223 -0.0148541,0.0147191 -0.0222173,0.0229336 -0.0259472,0.0289503 -0.0359043,0.0431489 -0.0597722,0.0741977 -0.0219326,0.0285321 -0.0665734,0.106695 -0.0687416,0.109249 -0.00590693,-0.00469232 -0.00825012,-0.00917702 -0.0135371,-0.0156905 -0.00682789,-0.00841029 -0.00675077,-0.00944545 -0.00181079,-0.0194826 0.0146316,-0.02972 0.0402585,-0.100507 0.0410445,-0.131707 0.00104257,-0.0414286 -0.0379746,-0.0365286 -0.0519433,0.00728615 -0.0109166,0.0342433 -0.00787046,0.0691895 -0.00975095,0.10584 -0.0117175,-0.0171735 -0.0202657,-0.0348943 -0.034052,-0.0523511 -0.00233875,-0.00296162 -0.00451732,-0.00556138 -0.00664993,-0.00816262l-0.00691836 -0.00699251c-0.00156164,0.0717551 5.93214e-006,0.150949 -8.15669e-005,0.224156 -3.85589e-005,0.032916 -0.0117011,0.034663 -0.0291624,0.04454l0.260756 1.03812e-005c-0.00664399,-0.0184934 -0.0097465,-0.0339274 -0.0175384,-0.0504128 -0.010313,-0.021814 -0.0233889,-0.0332037 -0.0262705,-0.0395095 0.0346274,-0.0130952 0.110774,-0.0317977 0.086016,-0.076403l-0.0267999 0.00207625 -0.00876622 0.000241735c-0.00816707,0.00586095 -0.0251448,0.00796538 -0.0353956,0.0116937 -0.022812,0.00829758 -0.0585428,0.0326134 -0.060229,0.0330628 -0.00837618,0.00223493 -0.030024,-0.00544125 -0.0358939,-0.00938909 0.0137729,-0.0196294 0.112857,-0.120651 0.126236,-0.126494 0.0223449,-0.0209493 0.0623868,-0.048513 0.0980508,-0.061055 0.122479,-0.0430718 0.095282,-0.109507 0.0585962,-0.117929 -0.017789,-0.00408279 -0.0489238,0.00922744 -0.0622741,0.0154858 -0.0525825,0.0246436 -0.0597945,0.0400568 -0.0928943,0.0648056z"/>
   <path id="_329266352" class="fil4" d="M1.31077 0.458391c0.00583277,0.0141837 0.0212875,0.0368356 0.0297615,0.05092 0.0151581,0.0251938 0.0295005,0.0206275 0.0536221,0.00761835 0.0211125,-0.0113853 0.0875079,-0.0511395 0.108832,-0.0534174 0.0378396,-0.00404424 0.0466192,0.016868 0.0537125,0.0211229 0.0106556,0.00639336 0.0560943,0.0862192 0.0662961,0.103047 0.00952405,0.0157053 0.0225362,0.0349477 0.0307611,0.0509556 0.0140443,-0.00564295 0.028059,-0.0255631 0.0349551,-0.0429828 0.00806771,-0.0203784 0.00884185,-0.0452667 0.00591582,-0.0682937 -0.00798169,-0.062808 -0.0336248,-0.09795 -0.0394902,-0.120095 0.00505418,-0.002579 0.0120215,-0.00466414 0.0131693,-0.0119666 -0.00808254,0.000358894 -0.010012,0.00423258 -0.0164943,0.00703403l-0.0255379 -0.0447713c-0.0259398,0.00097732 -0.0527026,0.0159916 -0.0934697,-0.0238249 -0.00682937,0.00212964 -0.176309,0.0990548 -0.207585,0.116039l-0.0109329 0.00596921c-0.00206142,0.00136587 -0.00224235,0.00153642 -0.00351627,0.00264573z"/>
   <path id="_329265968" class="fil2" d="M1.67251 0.239035c0.00535227,0.0223938 0.0171691,0.0463997 -0.00313069,0.0806385 -0.0047813,0.00806178 -0.0107327,0.0132524 -0.0137848,0.0202123l0.0254726 0.0422724c-0.00326268,0.00849334 -0.00268281,-0.000333683 -0.00458406,0.00901685 0.0116937,0.00328937 0.00300908,-0.0139227 0.0215025,0.026616 0.0267243,0.0585799 0.0498359,0.14358 0.017224,0.204462 -0.0116611,0.0217724 -0.0233252,0.0319772 -0.0410801,0.0463552 0.00107668,0.00843253 0.103241,0.171678 0.105551,0.173322l4.1525e-005 -0.661875 -0.107212 0.0589803z"/>
   <path id="_329265680" class="fil10" d="M0.545325 1.05221l0.323552 -0.00527664c0.0256046,-0.0302391 0.0335803,-0.0423836 0.0635436,-0.0710418l0.0526477 -0.0478012c0.00551392,-0.00486732 0.0134689,-0.00979248 0.0179165,-0.0156475 -0.0853219,-0.0033309 -0.196987,0.00274806 -0.279764,0.0177267 -0.0276601,0.00500524 -0.0330242,0.00982659 -0.0511944,0.0233355 -0.018532,0.0137744 -0.119027,0.0880552 -0.126702,0.0987048z"/>
   <path id="_329265944" class="fil11" d="M0.749831 1.27508c-0.0050438,-0.037368 0.00787491,-0.092132 0.042698,-0.107234 0.0548159,-0.0237701 0.0941356,0.0766002 0.0664681,0.135238 -0.00365716,0.00775034 -0.00788974,0.0164676 -0.0138323,0.0227868 -0.0137181,0.0145871 -0.0299202,0.0266338 -0.0513916,0.0179136 -0.0217383,-0.0088285 -0.0401991,-0.040957 -0.0439423,-0.0687045zm-0.0674232 0.026441c0.00814483,0.0352992 0.0282459,0.0597114 0.0537748,0.0734918 0.0111168,0.00213112 0.0848207,0.00258938 0.0952894,0.000216523 0.0143246,-0.0116908 0.0170549,-0.00639188 0.0333965,-0.0297259 0.016825,-0.0240237 0.0130522,-0.029812 0.0207343,-0.0439379l0.0366947 -0.000438978c0.0171305,-0.059265 -0.0202152,-0.176343 -0.103639,-0.176085 -0.0598019,0.000185379 -0.0940377,0.0599576 -0.103224,0.10853 -0.00523215,0.0276556 -0.00145337,0.0414923 -0.00139405,0.0672868l-0.0316331 0.000662916z"/>
   <path id="_329266736" class="fil12" d="M2.29726 0.365596c0.00438088,0.0554625 0.0199349,0.0384047 0.0262067,0.0553646 0.00269912,0.00729653 0.00428597,0.0101959 0.00850075,0.0175043 0.0253065,0.0438815 0.0777125,0.130049 0.132598,0.137093 0.0132895,0.00170697 0.0339259,-0.00400419 0.0409036,-0.011759l0.00162541 -0.00253747c0.00224383,-0.00418067 0.00112562,-0.00148007 0.00187752,-0.00370314l0.00747301 -0.132662c-0.00380102,0.00178409 -0.00808105,0.0102952 -0.011142,0.0147325 -0.00905096,0.0131249 -0.0262675,0.0389682 -0.0370373,0.0469262 -0.00926303,-0.00418364 -0.0822639,-0.0602527 -0.0966953,-0.0709662 -0.00550206,-0.00408279 -0.0100105,-0.00764653 -0.0159767,-0.011928 -0.00839842,-0.00602705 -0.010537,-0.00259976 -0.0141452,-0.0140844 -0.00911176,0.00468639 -0.0163208,0.00979693 -0.0267614,0.0118198 -0.0136632,-0.0254207 0.00774144,-0.0215767 -0.00168473,-0.0462366 -0.00790902,0.0020807 -0.0074389,0.0071067 -0.0157424,0.0104361z"/>
   <path id="_329267024" class="fil13" d="M0.431932 1.37496l0.30425 5.04232e-005c-0.025529,-0.0137804 -0.04563,-0.0381926 -0.0537748,-0.0734918l-0.117003 -0.000304022 -0.0900721 0.000262497c-0.0026576,0.0168028 -0.00713043,0.031992 -0.0150217,0.0448826 -0.0102018,0.0166678 -0.0136617,0.0175621 -0.0283793,0.0286003z"/>
   <path id="_329267096" class="fil14" d="M0.749831 1.27508c0.00374318,0.0277476 0.022204,0.059876 0.0439423,0.0687045 0.0214714,0.00872024 0.0376735,-0.00332645 0.0513916,-0.0179136 0.00594252,-0.00631921 0.0101751,-0.0150365 0.0138323,-0.0227868 0.0276675,-0.0586377 -0.0116522,-0.159008 -0.0664681,-0.135238 -0.0348231,0.0151017 -0.0477418,0.0698658 -0.042698,0.107234z"/>
   <path id="_329266544" class="fil9" d="M2.96434 1.3756l0.178026 -6.52535e-005 -0.00209849 -0.00216375c-0.000302539,-0.000265463 -0.000743,-0.000702958 -0.00108706,-0.000978803 -0.00766877,-0.00618129 -0.0231457,-0.00949439 -0.0329248,-0.010184 -0.0161384,-0.001136 -0.0297986,-0.000900202 -0.0460141,-0.00257603 0.0016788,-0.00542346 0.0212993,-0.0173471 0.0271084,-0.0214803 0.0159782,-0.0113719 0.0901492,-0.053149 0.0560187,-0.0743282 -0.0475861,-0.0295287 -0.0842008,0.0651675 -0.0910865,0.0938271l-0.0140043 -0.00212074c0.0036972,-0.0209167 0.0282889,-0.0766744 0.0380384,-0.0917642 0.00850817,-0.0131708 0.0546632,-0.0681425 0.0223597,-0.0817108 -0.0649065,-0.0272597 -0.0799964,0.127075 -0.082304,0.167375 -0.00239807,3.70759e-005 -0.0579777,-0.0116908 -0.0520323,0.0261696z"/>
   <path id="_329267168" class="fil9" d="M0.831472 1.37523l0.243609 8.4533e-005c-0.0126903,-0.00745966 -0.0210413,-0.00948401 -0.0259768,-0.0255112 -0.00365716,-0.0118747 -0.00133473,-0.034706 -0.0021593,-0.0483677l-0.124648 -0.000308471 -0.0366947 0.000438978c-0.00768212,0.0141259 -0.00390928,0.0199142 -0.0207343,0.0439379 -0.0163416,0.0233341 -0.0190718,0.0180352 -0.0333965,0.0297259z"/>
   <path id="_329267288" class="fil14" d="M0.3519 1.37492c0.0114653,0.0031648 0.0684717,0.00315293 0.080032,3.85589e-005 0.0147176,-0.0110382 0.0181776,-0.0119325 0.0283793,-0.0286003 0.00789123,-0.0128905 0.0123641,-0.0280798 0.0150217,-0.0448826l-0.166656 -0.000139405c0.00226608,0.0169585 0.00727873,0.0315857 0.0148125,0.0448885 0.00868317,0.0153301 0.01556,0.0185795 0.0284105,0.0286952z"/>
   <path id="_329251640" class="fil15" d="M2.56951 0.154218c0.000308471,0.0186981 -0.00224531,0.0339956 0.000352962,0.0538534 0.00433343,0.0331058 0.0125183,0.0266131 0.0253629,0.0297882l0.00527812 0.0462885 -0.00609379 0.00296162c0.00272285,0.00235209 -0.000163134,0.0010663 0.00432601,0.00240696 0.00290971,0.000870541 0.00397453,0.000904651 0.0070889,0.000877956 0.0112281,-9.34312e-005 0.0222396,-0.00420737 0.0317251,-0.00865647l0.035271 -0.016435c-0.00464486,-0.0100149 -0.0101276,-0.0176036 -0.0144448,-0.0305624 -0.00664548,-0.0199409 0.000989184,-0.0179002 0.00361564,-0.036714 -0.0119236,-0.00385292 -0.00381436,-0.0182102 -0.00917109,-0.031777 -0.00954926,0.000519062 -0.00868168,0.00224531 -0.0153153,0.00587727 -0.0209138,-0.0217754 -0.00161799,-0.0259323 -0.0679956,-0.0179091z"/>
   <path id="_329251544" class="fil16" d="M0.70521 0.525449c0.00508236,0.000524994 0.00303577,-0.00411839 0.00289933,-0.0186714l0.000103812 -0.067702c0.016785,-0.000489401 0.0368,0.00127986 0.0546454,0.00127986l0.0392233 0.000280294c0.0134215,-6.08044e-005 0.0110901,-0.00272433 0.0118702,-0.00534041 -0.0137107,-0.0503461 -0.0786809,-0.0743682 -0.124304,-0.0371204 -0.0153153,0.012502 -0.030948,0.039689 -0.0260243,0.070152 0.00406055,0.0251196 0.022726,0.0511736 0.0415858,0.057122z"/>
   <path id="_329251760" class="fil1" d="M0.70521 0.525449c0.0247177,0.0189695 0.064819,0.0057779 0.0842052,-0.00885816 0.0170504,-0.0128713 0.0362661,-0.0486346 0.0245368,-0.0812955 -0.000780076,0.00261607 0.00155125,0.0052796 -0.0118702,0.00534041l-0.0392233 -0.000280294c-0.0178454,0 -0.0378604,-0.00176926 -0.0546454,-0.00127986l-0.000103812 0.067702c0.000136439,0.014553 0.00218303,0.0191964 -0.00289933,0.0186714z"/>
   <path id="_329251424" class="fil17" d="M2.56951 0.154218c0.0663777,-0.00802322 0.0470819,-0.00386627 0.0679956,0.0179091 0.00663361,-0.00363195 0.00576604,-0.0053582 0.0153153,-0.00587727 0.00535672,0.0135668 -0.00275251,0.0279241 0.00917109,0.031777 0.0146509,-0.0156816 0.0386241,-0.0972114 -0.0177148,-0.107102 -0.0145619,-0.00255527 -0.0582239,-0.00857787 -0.0700289,-0.00469232 -0.0215737,0.00710077 -0.0295243,0.0253599 -0.0190481,0.0484626 -0.00177816,0.00046419 0.00109448,-0.000431563 -0.00246035,-0.000447876 -0.00337984,-1.48303e-005 0.000990667,-0.00177519 -0.00260124,0.000447876 0.00258938,0.0114698 0.00656836,0.0177786 0.0193714,0.0195227z"/>
   <path id="_329251232" class="fil18" d="M1.04693 1.05669c0.00164172,-0.0294382 0.00188197,-0.0908284 -0.00107668,-0.122794 -6.82196e-005,-0.000735585 -0.000330717,-0.000932829 -0.000593214,-0.00134808 -0.0301679,0.0176615 -0.103044,0.0968066 -0.120296,0.13175l0.121966 -0.00760797z"/>
   <path id="_329251808" class="fil13" d="M0.515743 1.20438c0.00481986,-0.015385 -0.00348513,-0.0318111 -0.0175117,-0.034749 -0.00827385,-0.00173367 -0.0955623,-0.00079639 -0.111048,-0.00065995 -0.018879,0.0001661 -0.0335062,0.00070889 -0.0389326,0.0166812 -0.00573934,0.0168903 0.00418364,0.0323168 0.0169199,0.0350782 0.0114935,0.0024915 0.0927979,0.00114045 0.111282,0.00119829 0.0203161,6.52535e-005 0.0337865,2.22455e-005 0.03929,-0.0175487z"/>
   <path id="_329252288" class="fil4" d="M2.07975 1.21146c-0.00809885,-0.000378174 -0.00344954,-0.000161651 -0.00562218,-0.00149786l0.000339615 -0.0896287c-0.0133785,0.00584316 -0.112463,0.106864 -0.126236,0.126494 0.00586985,0.00394784 0.0275177,0.011624 0.0358939,0.00938909 0.00168621,-0.000449359 0.037417,-0.0247652 0.060229,-0.0330628 0.0102507,-0.00372835 0.0272285,-0.00583277 0.0353956,-0.0116937z"/>
   <path id="_329252072" class="fil19" d="M1.44222 1.31042c0.00498893,0.0220023 0.0274302,0.0411498 0.0557057,0.0356922 0.0592383,-0.0114357 0.0444198,-0.106563 -0.020276,-0.092571 -0.0219682,0.00475164 -0.0420307,0.0277683 -0.0354297,0.0568788z"/>
   <path id="_329252240" class="fil20" d="M1.58672 0.255085c0.032078,-0.0139138 0.0466029,0.0344034 0.0183689,0.0448929 -0.0295539,0.0109789 -0.0479109,-0.032078 -0.0183689,-0.0448929zm-0.00109448 -0.0257188c-0.0676457,0.0172596 -0.0381288,0.112579 0.023862,0.095497 0.0222514,-0.00613086 0.0420781,-0.0304541 0.0345339,-0.0596818 -0.00573045,-0.0221966 -0.0282177,-0.0435167 -0.058396,-0.0358153z"/>
   <path id="_329252456" class="fil13" d="M0.177657 1.2081c0.00481393,0.0192157 0.0268133,0.0137551 0.0588869,0.0138234 0.0133829,2.96607e-005 0.024915,0.00294531 0.0306009,-0.00739589 0.0043616,-0.00793127 0.00482431,-0.0223004 0.00231502,-0.0319312 -0.0033917,-0.0130166 -0.00934757,-0.0138278 -0.0235714,-0.0136958 -0.0218421,0.000203176 -0.0590396,-0.00413618 -0.0655308,0.00710522 -0.00463893,0.00803656 -0.00512388,0.0224205 -0.00270061,0.0320943z"/>
   <path id="_329252192" class="fil21" d="M1.24082 1.1832c0.00701624,-0.00639336 0.0224175,-0.0292425 0.0259976,-0.0404038 0.0157128,-0.0489802 -0.0716484,-0.0466741 -0.052234,0.00210739 0.00474274,0.0119177 0.0185854,0.0333979 0.0262364,0.0382964z"/>
   <path id="_329252120" class="fil21" d="M1.44494 0.661186c0.00660692,-0.00377284 0.0108736,-0.0115603 0.0155333,-0.0185098 0.00356521,-0.00531964 0.00907765,-0.0133755 0.0116685,-0.0201292 0.00748636,-0.0195241 -0.00603002,-0.038028 -0.0248838,-0.0387858 -0.0189146,-0.000760797 -0.034445,0.0179773 -0.0273234,0.0374792 0.00570968,0.0156371 0.0175502,0.029281 0.0250054,0.0399455z"/>
   <path id="_329253344" class="fil3" d="M2.29726 0.365596c0.00830351,-0.00332941 0.00783339,-0.00835542 0.0157424,-0.0104361 0.00942617,0.0246599 -0.0119785,0.0208159 0.00168473,0.0462366 0.0104406,-0.00202286 0.0176496,-0.0071334 0.0267614,-0.0118198 0.0026487,-0.00726539 -0.00886558,-0.0250529 -0.012898,-0.0332823 -0.00359339,-0.00732916 -0.0117605,-0.0262542 -0.0167746,-0.031998l-0.0262378 0.0131738c0.00145337,0.0105429 0.0082086,0.0182354 0.0117219,0.0281257z"/>
   <path id="_329253152" class="fil0" d="M1.58672 0.255085c-0.029542,0.0128149 -0.011185,0.0558718 0.0183689,0.0448929 0.028234,-0.0104895 0.0137092,-0.0588068 -0.0183689,-0.0448929z"/>
  </g>
 </g>
</svg>
